<?xml version="1.0" standalone="no"?>
<!DOCTYPE svg PUBLIC "-//W3C//DTD SVG 20010904//EN"
 "http://www.w3.org/TR/2001/REC-SVG-20010904/DTD/svg10.dtd">
<svg version="1.0" xmlns="http://www.w3.org/2000/svg"
 width="700.000000pt" height="700.000000pt" viewBox="0 0 700.000000 700.000000"
 preserveAspectRatio="xMidYMid meet">
<metadata>
Created by potrace 1.11, written by Peter Selinger 2001-2013
</metadata>
<g transform="translate(0.000000,700.000000) scale(0.100000,-0.100000)"
fill="#000000" stroke="none">
<path d="M3231 5559 c-1 -10 -9 -15 -23 -14 -13 1 -29 -2 -36 -8 -8 -7 -16 -7
-20 -1 -4 5 -13 10 -21 12 -12 3 -12 1 0 -14 13 -16 12 -16 -9 -5 -18 9 -22 9
-20 -1 2 -8 -7 -13 -24 -12 -17 0 -28 -5 -28 -13 0 -7 -5 -13 -11 -13 -5 0 -7
6 -3 13 6 10 4 10 -7 0 -7 -7 -23 -13 -36 -13 -13 0 -23 -4 -23 -9 0 -5 -12
-12 -27 -16 -15 -3 -33 -14 -41 -23 -7 -9 -11 -12 -8 -5 5 8 0 8 -18 0 -13 -7
-22 -15 -20 -19 3 -5 -4 -8 -16 -8 -11 0 -23 -7 -26 -15 -4 -8 -15 -15 -26
-15 -10 0 -16 -4 -13 -10 3 -5 1 -10 -6 -10 -6 0 -18 -8 -26 -17 -8 -10 -12
-13 -9 -6 4 6 1 15 -5 19 -8 4 -9 3 -5 -5 4 -6 0 -14 -8 -17 -9 -3 -16 -12
-16 -20 0 -8 -7 -14 -15 -14 -8 0 -15 -7 -15 -15 0 -9 -6 -12 -15 -9 -10 4
-15 0 -15 -15 0 -15 -4 -19 -17 -14 -11 4 -14 3 -9 -5 4 -7 1 -15 -8 -18 -9
-3 -16 -12 -16 -20 0 -8 -6 -11 -15 -8 -9 4 -15 0 -15 -9 0 -8 -7 -18 -16 -21
-8 -3 -12 -10 -9 -16 3 -5 -3 -10 -14 -10 -14 0 -19 -5 -15 -15 4 -9 0 -15
-10 -15 -10 0 -16 -9 -16 -24 0 -13 -7 -27 -16 -30 -8 -3 -13 -10 -10 -15 3
-5 0 -11 -8 -14 -17 -7 -54 -78 -49 -94 3 -7 0 -13 -7 -13 -6 0 -9 4 -5 9 3 5
2 12 -3 15 -4 2 -9 -9 -10 -27 -2 -17 -8 -37 -15 -45 -6 -8 -12 -20 -13 -26 0
-6 -2 -17 -2 -24 -1 -7 -7 -10 -13 -7 -6 4 -10 1 -8 -6 3 -27 -3 -84 -8 -71
-2 6 -8 12 -13 12 -4 0 -8 -6 -7 -12 2 -55 -5 -108 -14 -108 -5 0 -7 5 -3 12
4 6 3 9 -2 6 -5 -4 -9 -36 -8 -72 0 -44 -3 -63 -10 -59 -8 5 -8 3 0 -8 14 -19
12 -38 -6 -49 -13 -8 -12 -10 4 -10 12 0 16 -5 12 -16 -3 -9 -6 -25 -6 -35 0
-11 -4 -18 -8 -15 -5 3 -9 -1 -9 -8 0 -9 7 -12 15 -8 13 5 13 2 -1 -18 -9 -14
-17 -29 -17 -35 0 -5 4 -3 10 5 5 8 12 11 16 7 4 -4 -1 -16 -11 -27 -14 -16
-15 -21 -4 -25 11 -4 14 -32 14 -123 -1 -131 2 -154 19 -146 6 3 3 -1 -7 -9
-18 -15 -18 -15 0 -20 16 -4 16 -5 1 -6 -11 -1 -15 -6 -12 -16 4 -8 9 -13 13
-11 10 7 7 -77 -3 -93 -6 -10 -6 -12 2 -7 7 4 12 2 12 -3 0 -6 -4 -11 -10 -11
-5 0 -10 -5 -10 -11 0 -5 5 -7 10 -4 7 5 10 -30 9 -104 -1 -80 -4 -109 -13
-104 -6 4 -4 -2 4 -12 14 -17 13 -18 -2 -12 -10 3 -18 2 -18 -3 0 -6 5 -10 11
-10 8 0 9 -4 0 -13 -6 -8 -8 -17 -4 -20 3 -4 -2 -9 -11 -13 -9 -3 -16 -10 -16
-16 0 -5 6 -6 13 -2 10 6 10 4 0 -7 -7 -7 -13 -22 -14 -33 0 -12 -3 -15 -6 -8
-8 21 -19 13 -21 -15 -1 -15 -7 -30 -13 -33 -9 -6 -16 -25 -18 -55 -1 -5 -6
-3 -11 5 -9 13 -10 13 -11 0 0 -8 -2 -25 -3 -38 -2 -15 2 -21 10 -18 8 3 11 0
8 -9 -6 -16 17 -45 36 -45 6 0 8 -4 5 -10 -5 -8 38 -16 67 -11 4 0 5 -6 1 -15
-3 -8 -2 -14 3 -13 37 7 214 -3 214 -12 0 -5 -6 -7 -12 -3 -10 5 -10 4 -2 -5
9 -10 9 -19 -1 -38 -8 -14 -11 -32 -8 -41 4 -10 2 -13 -5 -8 -11 6 -18 -19
-13 -46 0 -5 -6 -8 -15 -8 -8 0 -12 -4 -9 -10 3 -5 1 -10 -5 -10 -6 0 -10 -6
-9 -12 1 -7 1 -20 0 -28 -1 -13 -2 -13 -11 0 -7 11 -10 7 -10 -18 0 -20 -4
-31 -10 -27 -6 4 -7 11 -4 17 5 7 2 8 -5 4 -7 -5 -10 -10 -7 -13 10 -10 -15
-44 -26 -37 -8 5 -9 1 -5 -10 5 -14 3 -17 -8 -12 -9 3 -15 0 -15 -9 0 -7 -5
-17 -12 -21 -8 -5 -9 -1 -5 12 7 18 6 18 -7 2 -7 -10 -19 -18 -26 -18 -7 0
-10 -7 -6 -16 5 -14 4 -15 -9 -4 -8 7 -15 8 -15 3 0 -5 -17 -8 -37 -8 -21 1
-46 -2 -55 -7 -11 -5 -18 -5 -18 1 0 5 -18 8 -40 6 -24 -2 -40 1 -40 7 0 6 -6
6 -15 -2 -14 -11 -19 -7 -16 13 0 4 -18 7 -41 7 -32 0 -39 3 -28 10 10 7 11
10 3 11 -13 2 -27 5 -40 9 -5 1 -11 2 -15 1 -5 0 -8 6 -8 15 0 10 -6 14 -15
10 -9 -3 -15 0 -15 9 0 8 -7 15 -15 15 -8 0 -15 7 -15 15 0 8 -11 22 -25 31
-14 9 -22 20 -19 25 3 5 -2 12 -10 15 -9 3 -13 10 -10 15 3 5 0 9 -6 9 -7 0
-10 7 -6 15 3 9 0 15 -9 15 -8 0 -16 7 -16 15 -2 24 -4 29 -13 44 -6 9 -5 12
1 8 12 -7 9 41 -3 51 -4 4 -4 -1 -1 -10 3 -10 3 -19 -2 -22 -14 -9 -13 184 1
202 7 9 8 13 2 9 -17 -10 -16 652 0 672 7 10 8 13 0 8 -7 -4 -12 30 -13 111
-5 202 -5 200 -18 195 -10 -4 -13 9 -13 45 0 32 -6 56 -15 66 -18 18 -20 30
-2 20 9 -5 9 -4 0 6 -6 7 -9 18 -7 25 3 7 0 16 -7 21 -8 5 -10 3 -4 -6 5 -9 4
-11 -3 -6 -7 4 -12 23 -12 42 0 19 -5 34 -11 34 -5 0 -7 -5 -3 -12 4 -6 3 -8
-3 -5 -6 4 -10 18 -10 32 -1 14 -9 33 -19 41 -11 9 -13 13 -7 9 9 -4 11 -1 7
10 -4 9 -13 14 -22 10 -12 -4 -13 -3 -2 10 10 12 10 15 -4 15 -10 0 -14 5 -11
10 3 6 -1 13 -9 16 -9 3 -16 17 -16 30 0 18 -5 24 -22 24 -19 0 -20 2 -8 10
13 8 13 10 -2 10 -9 0 -20 9 -23 20 -4 11 -11 18 -16 15 -5 -4 -9 1 -9 9 0 9
-7 16 -15 16 -8 0 -14 5 -13 11 2 6 -6 13 -17 15 -11 1 -25 10 -31 18 -6 9
-15 12 -20 8 -4 -4 -2 1 6 11 12 16 12 18 -1 17 -31 -5 -46 1 -77 30 -18 16
-35 30 -37 30 -3 0 -14 0 -26 0 -11 0 -17 5 -14 10 4 6 -6 10 -23 10 -17 0
-32 6 -35 13 -3 7 -29 13 -68 15 -40 2 -68 8 -75 17 -8 11 -12 11 -22 -3 -8
-12 -10 -13 -7 -2 4 13 -9 15 -85 15 -68 0 -89 -3 -85 -13 3 -8 -3 -7 -19 4
-22 14 -25 14 -35 -3 -9 -15 -12 -15 -20 -4 -5 8 -10 9 -12 3 -2 -6 -23 -12
-47 -13 -24 -2 -46 -7 -49 -13 -3 -5 -1 -6 5 -2 7 4 12 2 12 -3 0 -6 -21 -11
-47 -11 -35 0 -44 -3 -33 -10 13 -8 12 -10 -5 -11 -11 -1 -24 -2 -30 -4 -5 -1
-16 -3 -23 -3 -7 -1 -11 -6 -8 -10 2 -4 -4 -8 -14 -9 -10 -1 -28 -11 -40 -23
-11 -11 -24 -19 -29 -16 -4 3 -14 -4 -21 -15 -15 -20 -36 -27 -24 -7 4 7 3 8
-4 4 -7 -4 -12 -14 -12 -23 0 -9 -6 -13 -15 -9 -9 3 -15 0 -15 -9 0 -8 -7 -15
-15 -15 -8 0 -15 -7 -15 -16 0 -8 -5 -12 -11 -9 -6 4 -13 -3 -16 -15 -4 -16
-8 -18 -14 -8 -6 9 -9 7 -9 -9 0 -14 -6 -23 -15 -23 -8 0 -15 -3 -15 -7 0 -13
-47 -63 -53 -57 -3 3 -4 -2 -3 -11 1 -10 -8 -29 -21 -43 -12 -13 -20 -28 -17
-33 3 -5 0 -9 -6 -9 -7 0 -10 -7 -6 -15 3 -8 0 -15 -7 -15 -7 0 -14 -10 -14
-22 -1 -13 -7 -24 -12 -26 -5 -2 -7 -10 -4 -19 4 -11 2 -14 -5 -9 -9 5 -12 -7
-13 -41 -1 -26 -1 -53 0 -60 1 -6 -3 -14 -9 -18 -5 -3 -7 0 -4 8 3 8 1 18 -5
21 -6 4 -9 -50 -9 -158 1 -91 5 -163 10 -160 5 3 6 10 3 15 -4 5 -1 9 4 9 7 0
11 -23 11 -55 0 -30 4 -55 9 -55 5 0 11 -18 15 -40 3 -23 10 -38 16 -35 5 3
11 1 15 -5 3 -5 0 -10 -7 -10 -10 0 -10 -2 1 -9 8 -5 10 -14 6 -22 -6 -9 -3
-11 8 -6 14 5 17 0 17 -29 0 -19 4 -33 9 -30 11 7 23 -22 14 -36 -3 -6 -2 -9
3 -6 5 3 15 0 22 -8 7 -8 10 -14 5 -14 -4 0 2 -7 13 -16 10 -8 12 -12 4 -8
-28 14 24 -38 55 -54 37 -20 136 -23 150 -4 6 7 20 14 33 15 12 0 22 7 22 15
0 7 5 10 10 7 9 -6 14 8 11 28 0 4 4 6 11 5 8 -2 12 9 12 30 0 19 5 32 13 32
7 0 13 4 13 10 0 5 -8 7 -17 3 -15 -5 -14 -3 2 10 l20 16 -20 1 c-11 1 -14 4
-8 7 9 3 10 10 3 22 -5 10 -6 22 -2 26 4 3 -1 12 -10 19 -10 7 -19 24 -21 36
-2 13 -9 26 -15 28 -7 2 -12 10 -12 18 0 9 -4 13 -9 9 -5 -3 -12 -1 -16 5 -3
5 -1 10 6 10 8 0 9 3 0 13 -6 8 -8 17 -4 20 3 4 -1 7 -10 7 -16 0 -23 31 -18
83 1 9 -3 17 -9 17 -6 0 -8 5 -5 10 3 6 3 10 -2 10 -10 0 -10 106 -1 116 4 4
3 15 -2 25 -7 12 -6 20 2 25 7 5 8 3 3 -6 -5 -9 -4 -11 3 -6 9 5 9 13 1 28 -8
15 -8 19 0 14 7 -5 11 2 11 17 0 14 7 30 15 37 9 7 13 15 11 17 -2 3 3 13 12
23 36 40 47 55 44 62 -1 5 5 8 13 8 8 0 15 7 15 15 0 13 19 20 44 16 5 -1 4 4
-2 11 -8 11 -7 14 8 15 11 1 29 11 42 22 16 16 24 18 30 9 5 -10 8 -8 8 4 0
11 10 18 27 20 16 2 27 8 26 13 -1 6 22 11 50 13 28 1 54 8 58 14 4 6 12 7 18
4 6 -4 11 -4 11 1 0 4 19 8 43 7 31 0 41 -4 39 -15 -2 -11 0 -11 10 1 16 18
48 22 42 5 -3 -6 2 -12 10 -12 8 0 13 3 11 7 -2 4 2 7 10 7 8 0 12 -4 9 -9 -4
-7 34 -13 59 -9 4 0 7 -6 7 -14 0 -9 9 -15 25 -15 14 0 25 -4 25 -10 0 -5 11
-12 25 -16 14 -3 22 -10 19 -15 -5 -8 10 -13 29 -10 5 1 6 -3 2 -9 -7 -12 19
-42 29 -33 3 4 6 -1 6 -11 0 -11 4 -15 13 -10 7 5 6 0 -3 -11 -14 -17 -13 -18
3 -12 12 5 17 1 17 -13 0 -10 5 -22 12 -26 7 -5 8 -3 3 6 -5 9 -4 11 3 6 7 -4
12 -20 12 -36 0 -15 5 -30 12 -32 6 -2 12 -15 14 -29 1 -13 3 -28 3 -32 1 -5
6 -5 11 -2 9 6 15 -34 11 -77 -1 -9 3 -19 8 -23 7 -3 8 0 5 9 -3 9 -2 16 3 16
5 0 10 -39 12 -87 1 -48 8 -94 14 -102 9 -12 9 -13 -1 -7 -10 6 -12 -88 -12
-463 0 -361 3 -471 13 -474 9 -4 9 -6 0 -6 -7 -1 -13 -8 -13 -17 0 -8 4 -12
10 -9 5 3 10 1 10 -4 0 -6 -4 -11 -10 -11 -5 0 -10 -5 -10 -11 0 -5 5 -7 10
-4 10 6 13 -17 13 -78 0 -15 2 -25 5 -22 12 11 30 -18 26 -42 -4 -20 -1 -24
10 -20 9 4 15 3 15 -1 -5 -29 3 -72 11 -67 6 3 10 3 11 -2 3 -34 11 -50 33
-66 17 -12 26 -28 26 -45 0 -19 3 -23 9 -14 6 10 10 8 16 -10 4 -12 7 -27 6
-31 -1 -5 3 -6 8 -2 6 3 8 13 5 23 -5 14 -4 14 4 2 6 -8 9 -17 6 -21 -2 -4 3
-9 11 -13 8 -3 15 -12 15 -20 0 -8 14 -17 31 -21 24 -5 28 -9 18 -16 -11 -7
-9 -10 8 -15 13 -4 20 -10 17 -15 -3 -5 7 -9 21 -9 20 0 26 -4 21 -15 -3 -9 1
-16 9 -16 35 -3 40 -6 37 -17 -1 -7 1 -11 5 -11 25 4 53 -2 48 -11 -4 -6 9
-10 31 -10 32 0 35 -2 23 -16 -11 -13 -11 -15 2 -14 32 5 80 -1 75 -8 -3 -5 1
-9 9 -9 8 0 12 4 9 9 -3 4 0 8 5 8 6 0 11 -6 11 -13 0 -9 25 -12 90 -12 83 0
109 -6 78 -18 -7 -3 -3 -4 9 -4 12 1 20 4 17 8 -2 4 5 9 16 12 11 3 23 1 26
-4 3 -5 11 -6 17 -2 6 4 29 8 50 9 22 1 43 7 47 14 4 6 10 11 14 11 29 -4 66
1 66 9 0 5 -8 7 -17 4 -15 -5 -16 -4 -3 5 8 6 30 11 48 11 20 0 35 6 38 15 4
8 15 15 26 15 10 0 16 5 13 10 -3 5 3 10 14 10 12 0 21 7 21 15 0 8 7 15 16
15 10 0 14 5 10 16 -3 8 -2 12 4 9 11 -7 50 30 50 48 0 9 3 9 9 -1 6 -10 10
-6 15 14 6 22 9 25 17 13 6 -10 9 -7 9 14 0 16 4 26 9 23 5 -3 12 5 15 19 4
14 11 25 16 25 6 0 10 11 10 24 0 14 4 28 10 31 6 4 7 -1 4 -12 -5 -15 -4 -16
5 -3 6 8 11 23 11 33 0 9 6 17 13 17 8 0 7 4 -3 10 -13 8 -13 10 2 10 11 0 15
5 12 15 -4 8 -2 15 3 15 6 0 15 12 21 26 10 20 10 24 0 18 -10 -6 -11 -4 0 7
6 7 12 24 12 37 0 13 4 20 10 17 6 -4 10 8 10 29 0 22 5 36 13 36 7 0 8 3 2 8
-14 10 -15 41 -1 36 8 -3 11 6 10 26 l-2 30 84 0 85 0 -1 -475 c-1 -433 -3
-476 -18 -486 -13 -8 -14 -10 -1 -6 12 4 15 -4 15 -39 0 -46 -4 -51 -11 -14
-8 41 -11 30 -13 -48 -2 -42 -7 -81 -13 -87 -7 -7 -8 -4 -3 10 4 11 4 17 0 14
-4 -4 -9 -16 -11 -28 -3 -15 0 -19 8 -14 9 5 9 3 0 -9 -7 -8 -10 -18 -6 -21 3
-4 -1 -7 -10 -7 -10 0 -17 -10 -19 -28 -2 -15 -8 -26 -15 -25 -7 2 -13 -4 -13
-12 0 -8 -7 -15 -15 -15 -8 0 -14 -5 -12 -12 1 -6 -7 -14 -18 -16 -11 -2 -26
-11 -32 -20 -7 -9 -13 -12 -13 -7 0 5 -7 0 -16 -11 -8 -10 -12 -12 -8 -4 7 12
5 13 -8 3 -8 -7 -27 -14 -42 -15 -22 -2 -24 -4 -12 -13 15 -11 3 -14 -96 -18
-20 -1 -34 -5 -32 -8 2 -4 -4 -10 -13 -14 -10 -3 -19 -1 -21 4 -2 6 -8 8 -13
5 -16 -10 -89 -12 -95 -2 -3 4 -14 3 -25 -2 -13 -7 -19 -7 -19 0 0 5 -5 10
-11 10 -5 0 -8 -4 -5 -9 4 -5 -2 -8 -11 -6 -10 2 -22 4 -26 4 -5 1 -6 5 -3 9
3 5 -1 9 -9 9 -8 0 -12 -5 -8 -10 3 -5 -4 -4 -15 2 -12 6 -43 12 -71 13 -27 2
-47 6 -44 10 2 5 9 5 15 2 6 -4 8 -3 5 2 -3 6 -22 11 -42 12 -21 2 -44 9 -51
17 -8 7 -23 12 -34 10 -11 -2 -20 0 -20 5 0 10 -40 25 -59 21 -7 -1 -10 2 -7
8 4 5 -3 12 -14 16 -11 3 -20 12 -20 18 0 7 -4 6 -10 -3 -8 -12 -10 -10 -11
10 0 14 -3 19 -6 13 -7 -19 -21 -16 -28 7 -4 11 -11 18 -16 15 -5 -4 -9 1 -9
9 0 10 -9 16 -25 16 -16 0 -25 6 -25 16 0 8 -5 12 -11 9 -6 -4 -13 2 -16 14
-3 11 -9 18 -14 15 -5 -3 -9 2 -9 10 0 9 -4 15 -8 13 -12 -3 -63 54 -56 64 3
5 -2 6 -10 3 -11 -4 -14 0 -11 16 4 19 2 20 -12 8 -15 -11 -16 -11 -10 4 4 13
-1 23 -18 34 -14 9 -23 20 -20 24 3 4 -5 10 -18 14 -18 5 -20 8 -7 16 12 8 11
10 -7 10 -13 0 -22 3 -20 8 1 4 -2 7 -7 7 -5 0 -13 10 -17 23 -5 14 -13 20
-20 16 -8 -4 -9 -3 -5 5 4 6 0 14 -11 18 -9 4 -30 20 -45 35 -16 17 -33 26
-40 22 -8 -5 -9 -2 -5 9 5 12 1 17 -13 17 -11 0 -20 5 -20 11 0 5 -4 7 -10 4
-5 -3 -10 -1 -10 6 0 6 -8 9 -19 6 -14 -3 -17 0 -13 16 4 17 1 19 -28 15 -30
-4 -31 -4 -15 9 18 12 17 13 -8 13 -17 0 -27 5 -27 15 0 14 -17 20 -48 16 -7
-1 -15 5 -18 12 -3 9 -17 14 -35 13 -20 -2 -28 2 -25 10 3 8 -7 12 -30 13 -59
3 -64 4 -64 18 0 8 -5 11 -10 8 -6 -4 -7 -11 -4 -17 4 -7 2 -8 -5 -4 -6 4 -9
12 -5 17 4 7 -49 10 -150 8 -93 -1 -156 -6 -156 -12 0 -5 14 -7 33 -3 23 4 28
3 17 -4 -8 -5 -34 -10 -58 -10 -32 0 -41 -3 -36 -12 5 -8 0 -7 -11 2 -11 9
-16 10 -11 3 5 -9 1 -13 -11 -14 -38 -3 -44 -4 -52 -17 -5 -8 -11 -13 -15 -13
-24 3 -36 -1 -36 -14 0 -8 -9 -15 -19 -15 -11 0 -29 -13 -41 -30 -12 -16 -28
-30 -36 -30 -8 0 -14 -4 -14 -10 0 -5 -6 -9 -12 -7 -7 1 -12 -4 -11 -10 2 -7
-2 -13 -7 -13 -13 0 -56 -43 -53 -52 2 -5 -4 -8 -12 -8 -8 0 -15 -7 -15 -15 0
-9 -6 -12 -17 -8 -10 4 -14 2 -10 -4 8 -13 -20 -53 -37 -53 -8 0 -16 -14 -20
-32 -3 -17 -9 -28 -12 -25 -9 9 -45 -59 -40 -75 1 -7 1 -10 -1 -5 -13 21 -21
0 -21 -54 0 -49 3 -59 15 -55 11 4 13 2 9 -9 -3 -9 3 -24 14 -35 11 -11 20
-26 20 -33 0 -8 4 -7 10 3 8 12 10 11 10 -7 0 -13 5 -23 11 -23 5 0 7 5 4 10
-3 6 -1 10 4 10 6 0 11 -4 11 -10 0 -17 126 -12 140 5 7 9 19 14 26 11 7 -3
16 -1 19 4 4 6 1 10 -5 10 -6 0 -8 5 -5 11 4 6 13 8 21 5 9 -4 14 2 14 15 0
11 7 22 15 25 8 4 15 15 15 26 0 10 4 17 8 14 10 -6 42 29 42 45 0 5 4 8 9 4
12 -7 30 24 25 43 -1 7 0 8 3 2 2 -5 9 -10 14 -10 6 0 7 5 4 10 -3 6 1 10 9
10 9 0 16 7 16 15 0 8 9 15 20 15 11 0 20 7 20 15 0 8 9 15 20 15 11 0 20 5
20 10 0 6 9 10 19 10 11 0 26 7 35 15 8 8 24 15 36 15 11 0 31 7 44 16 18 11
26 12 32 3 4 -7 3 -9 -2 -6 -6 3 -16 2 -23 -2 -7 -5 4 -8 27 -7 22 0 38 4 35
8 -2 5 0 8 6 8 5 0 11 -4 13 -9 2 -6 25 -11 51 -12 27 -2 51 -7 54 -12 3 -6 1
-7 -5 -3 -6 3 -14 2 -17 -4 -4 -6 -3 -10 2 -9 32 5 73 -3 73 -15 0 -8 8 -13
18 -12 9 0 16 -5 14 -12 -1 -7 3 -12 10 -11 27 3 49 -1 44 -9 -3 -5 4 -16 15
-25 22 -20 33 -22 23 -5 -4 7 -3 8 4 4 7 -4 12 -14 12 -22 0 -8 5 -12 10 -9 6
3 10 -1 10 -10 0 -9 4 -14 9 -11 5 3 11 -1 15 -9 3 -8 12 -15 21 -15 8 0 15
-7 15 -16 0 -8 4 -13 9 -9 5 3 12 1 16 -5 3 -5 1 -10 -5 -10 -6 0 -8 -5 -5
-11 4 -6 13 -8 21 -5 8 3 14 -1 14 -9 0 -8 7 -15 16 -15 14 0 15 -2 3 -17 -8
-9 -9 -14 -2 -10 14 9 46 -21 37 -34 -3 -6 3 -13 15 -16 12 -3 21 -12 21 -20
0 -8 4 -11 10 -8 5 3 10 -3 10 -14 0 -15 4 -19 17 -14 10 4 14 2 10 -4 -8 -12
17 -36 26 -26 4 3 7 -1 7 -10 0 -9 5 -17 10 -17 6 0 10 -7 10 -16 0 -8 5 -12
10 -9 6 3 13 -1 16 -9 3 -9 12 -16 20 -16 8 0 14 -7 14 -15 0 -14 11 -19 38
-16 7 1 11 -4 10 -11 -2 -6 3 -12 10 -13 6 0 12 -4 13 -10 0 -10 38 -29 52
-27 4 1 7 -5 7 -13 0 -9 6 -12 15 -8 10 3 15 0 13 -8 -2 -7 4 -14 12 -15 37
-3 41 -5 35 -14 -4 -6 5 -10 20 -10 14 0 28 -7 31 -15 4 -10 21 -15 48 -16 33
-1 36 -2 16 -8 -22 -6 -23 -8 -7 -14 10 -4 30 -7 43 -7 14 0 22 -4 19 -10 -3
-5 -2 -10 4 -10 5 0 12 6 14 13 4 8 6 7 6 -3 1 -10 13 -16 38 -17 20 -1 41 -7
47 -13 5 -5 25 -10 43 -10 24 0 33 -4 33 -17 0 -15 2 -14 16 3 8 10 13 14 10
8 -8 -17 17 -24 79 -24 33 0 55 -5 58 -12 4 -10 6 -10 6 0 1 6 6 12 12 12 5 0
8 -4 5 -8 -3 -5 1 -9 9 -9 8 0 12 3 10 7 -2 4 2 7 10 7 8 0 12 -4 9 -9 -3 -4
0 -8 5 -8 6 0 11 6 11 13 0 8 3 8 8 1 12 -17 42 -25 36 -9 -4 9 1 12 13 10 10
-2 18 -4 18 -5 0 -7 42 -7 50 0 6 5 41 10 79 11 47 1 66 5 62 14 -2 6 2 12 9
12 7 0 11 -6 8 -14 -3 -7 0 -13 6 -13 6 0 11 7 11 15 0 14 19 18 83 18 12 0
14 3 8 11 -8 9 0 12 29 11 21 -1 38 4 37 9 -1 6 9 12 23 14 14 2 30 8 35 14 7
8 5 8 -5 3 -9 -5 -12 -4 -7 1 9 9 12 10 50 13 21 2 21 3 2 11 l-20 9 20 1 c11
2 26 1 34 0 9 -1 12 4 8 14 -6 15 4 20 40 19 7 0 11 2 10 6 -3 9 47 56 56 53
5 -1 6 2 3 7 -4 5 2 14 11 20 10 5 17 13 16 18 0 4 3 7 9 5 5 -1 7 2 3 8 -3 5
-1 10 5 10 6 0 8 5 5 10 -3 6 1 13 9 16 9 3 16 11 16 16 0 6 7 16 15 22 8 6
16 25 17 43 2 26 5 30 16 21 7 -6 12 -7 11 -2 -1 5 -1 27 0 49 1 30 4 36 11
25 8 -12 10 -9 11 13 2 35 3 40 12 54 4 6 4 19 0 29 -4 10 -2 15 4 11 10 -6
11 4 13 118 1 30 5 53 10 50 5 -3 12 -1 15 5 4 6 1 9 -7 8 -8 -2 -13 9 -14 29
-2 24 2 33 14 33 14 0 14 1 -1 13 -16 11 -18 39 -4 53 3 4 4 -5 1 -20 -2 -14
-1 -26 4 -26 13 0 9 54 -5 68 -16 16 -17 29 -3 37 5 3 7 0 4 -8 -3 -8 -1 -18
5 -21 16 -10 9 38 -8 50 -11 9 -12 12 -1 19 9 5 11 4 6 -3 -4 -7 -3 -12 2 -12
5 0 9 32 9 70 0 39 -4 70 -9 70 -4 0 -8 5 -8 11 0 5 4 8 9 5 5 -3 9 6 9 21 0
25 -1 26 -14 8 -8 -10 -14 -14 -14 -8 0 6 7 16 15 23 16 13 21 45 6 35 -5 -3
-13 -1 -16 5 -4 6 -1 9 6 8 6 -2 14 3 17 11 3 8 0 11 -7 7 -6 -4 -11 -2 -11 3
0 6 4 11 8 11 5 0 9 29 8 65 0 60 -8 83 -18 53 -3 -7 -4 24 -3 69 0 55 5 86
15 99 13 16 13 17 0 12 -11 -4 -16 1 -17 14 -1 10 5 22 13 25 8 3 14 10 14 15
0 6 -6 8 -13 5 -8 -3 -14 3 -14 15 -1 10 5 22 13 25 8 3 14 10 14 15 0 6 -6 8
-14 5 -19 -8 -15 26 6 47 15 14 37 17 158 15 107 -1 138 -4 131 -13 -11 -13
-9 -56 4 -76 5 -9 4 -11 -3 -6 -7 4 -12 2 -12 -3 0 -6 5 -11 10 -11 6 0 10 -5
10 -11 0 -5 -4 -8 -9 -5 -4 3 -8 -21 -7 -53 0 -33 4 -57 8 -55 5 3 8 0 8 -5 0
-6 -5 -11 -10 -11 -6 0 -9 -13 -8 -29 1 -16 6 -27 10 -25 4 3 8 0 8 -5 0 -6
-3 -11 -7 -11 -5 0 -8 -20 -9 -45 0 -25 2 -41 6 -35 5 8 9 6 13 -5 4 -9 3 -14
-3 -10 -6 3 -13 -1 -17 -10 -3 -10 0 -21 8 -26 10 -6 10 -9 2 -9 -7 0 -13 -4
-13 -10 0 -5 8 -7 18 -4 16 5 16 5 0 -6 -11 -6 -18 -22 -17 -38 l1 -27 8 25
c5 17 8 19 9 7 1 -9 -5 -26 -11 -37 -11 -17 -10 -22 1 -29 11 -7 11 -9 0 -14
-11 -4 -10 -8 4 -19 17 -13 17 -15 3 -27 -21 -18 -20 -47 2 -61 16 -11 16 -11
0 -6 -18 5 -24 -5 -11 -18 4 -3 8 -17 10 -29 2 -16 1 -18 -6 -8 -7 10 -9 7 -8
-12 1 -14 5 -23 10 -20 4 2 7 -1 7 -6 0 -6 -4 -11 -10 -11 -5 0 -10 -10 -9
-22 0 -22 1 -22 9 -3 7 16 9 17 9 3 1 -9 -3 -19 -8 -22 -10 -7 -8 -96 2 -113
4 -6 1 -14 -5 -16 -7 -3 -4 -6 7 -6 17 -1 17 -3 5 -11 -10 -6 -11 -10 -2 -10
6 0 12 -5 12 -11 0 -5 -5 -7 -12 -3 -7 4 -8 3 -4 -5 5 -7 9 -30 10 -51 1 -21
8 -45 15 -53 9 -11 9 -17 0 -22 -8 -6 -7 -10 2 -16 11 -7 11 -9 -1 -9 -11 0
-12 -3 -3 -8 6 -4 13 -28 14 -54 2 -26 6 -45 10 -42 5 2 5 12 2 22 -3 9 -3 14
1 10 9 -7 14 -32 15 -73 1 -23 4 -27 11 -15 5 8 10 11 11 5 1 -5 2 -14 4 -20
1 -5 3 -20 3 -33 1 -13 6 -20 12 -17 5 3 10 -1 10 -10 0 -12 5 -15 16 -11 13
5 14 3 6 -6 -11 -14 9 -54 21 -42 3 4 9 -5 13 -20 3 -14 10 -23 15 -20 5 3 9
-2 9 -10 0 -8 5 -18 12 -22 7 -5 8 -2 3 7 -4 8 1 5 12 -6 11 -11 19 -23 16
-27 -2 -4 8 -10 22 -14 14 -3 25 -13 25 -21 0 -9 8 -13 23 -11 13 2 21 -2 20
-9 -3 -12 17 -18 41 -14 5 1 4 -5 -4 -13 -11 -14 -8 -16 23 -16 26 0 35 -4 31
-13 -3 -9 3 -13 18 -13 13 1 22 -4 21 -10 -1 -6 4 -11 12 -11 8 0 11 5 8 11
-4 6 0 5 9 -2 9 -7 29 -14 46 -15 19 -1 28 -6 25 -14 -4 -9 6 -13 30 -13 20 0
39 -5 42 -10 3 -6 12 -10 18 -10 7 0 6 4 -3 10 -12 7 -10 9 7 7 12 0 19 -5 17
-9 -3 -4 0 -8 5 -8 6 0 11 6 11 13 0 6 5 4 11 -6 8 -14 14 -16 25 -6 8 6 14 7
14 2 0 -12 273 -11 282 2 5 6 8 4 8 -4 0 -11 4 -10 16 5 8 10 12 12 8 4 -7
-13 -5 -13 9 -1 14 11 17 11 17 0 0 -11 2 -11 8 -2 4 7 33 13 65 14 43 2 54 5
47 14 -7 9 -2 12 21 13 17 0 38 7 47 14 12 9 14 10 8 1 -4 -7 -2 -13 3 -13 6
0 11 8 11 18 0 14 2 15 10 2 6 -10 10 -11 10 -2 0 6 11 12 25 12 14 0 25 5 25
10 0 6 14 10 30 10 20 0 30 5 30 15 0 9 9 15 25 15 15 0 24 5 22 13 -1 7 7 11
22 9 14 -2 21 0 17 7 -4 7 -1 8 8 5 11 -4 16 0 16 12 0 16 2 17 10 4 9 -13 10
-13 11 0 1 8 1 17 1 20 0 3 9 7 21 7 12 1 27 9 33 18 11 15 13 15 17 -2 4 -16
5 -16 6 0 0 9 9 17 19 17 14 0 15 2 2 10 -12 8 -10 10 9 10 17 0 22 4 17 16
-3 8 -2 12 4 9 5 -3 17 3 27 14 9 11 20 18 25 15 4 -3 8 2 8 11 0 9 5 13 10
10 6 -3 10 -1 10 5 0 6 4 9 9 5 5 -3 12 4 16 14 4 13 12 18 23 14 13 -4 13 -2
-3 11 -17 15 -17 17 -2 12 10 -3 17 0 17 8 0 8 9 16 21 19 12 3 18 10 14 16
-3 6 1 11 10 11 9 0 13 5 10 10 -3 6 1 13 9 16 9 3 16 13 16 21 0 10 6 13 16
9 8 -3 13 -2 9 3 -8 13 6 42 17 35 5 -3 12 4 15 16 4 16 8 18 14 8 7 -10 9 -9
9 5 0 9 7 17 15 17 8 0 14 3 12 8 -4 12 65 72 76 65 6 -4 8 0 4 10 -5 13 -1
17 14 17 11 0 18 4 14 9 -5 10 32 27 49 23 5 -2 6 4 3 13 -4 10 0 15 12 15 11
0 21 5 23 11 2 6 15 12 30 12 14 1 26 6 25 12 -2 10 5 12 56 14 28 1 30 3 16
14 -14 10 0 13 77 15 86 2 93 1 87 -15 -5 -15 -3 -15 10 2 13 16 18 18 29 7
11 -11 10 -12 -6 -6 -13 5 -17 4 -12 -4 4 -7 25 -12 47 -12 24 0 38 -4 34 -10
-3 -6 0 -10 8 -10 8 0 18 -7 21 -16 3 -8 10 -13 16 -9 5 3 18 -3 30 -15 11
-11 25 -20 30 -20 6 0 10 -7 10 -16 0 -9 5 -12 12 -8 8 5 9 2 5 -9 -3 -10 -2
-17 3 -17 18 0 71 -60 64 -72 -5 -8 -2 -9 10 -5 9 4 15 3 12 -2 -3 -5 1 -11 9
-15 8 -3 15 -12 15 -21 0 -8 5 -15 10 -15 6 0 10 -6 10 -14 0 -8 7 -17 16 -20
8 -3 12 -10 9 -16 -5 -9 24 -15 49 -11 5 1 6 -4 3 -11 -3 -10 11 -14 63 -15
55 0 67 2 63 13 -3 8 1 14 11 14 9 0 16 6 16 13 0 9 2 9 9 -1 7 -11 10 -10 15
3 3 9 3 22 -1 28 -4 7 2 5 13 -3 10 -8 16 -10 12 -6 -4 5 -3 15 3 23 6 7 8 13
3 13 -5 0 -3 4 4 8 12 8 23 86 14 109 -2 7 -9 10 -16 6 -7 -4 -7 -2 1 7 9 10
8 16 -3 28 -8 8 -13 21 -9 29 3 10 1 13 -8 10 -8 -3 -18 7 -26 24 -7 16 -20
29 -28 29 -9 0 -13 6 -9 15 3 8 1 15 -5 15 -6 0 -7 6 -3 13 5 8 2 7 -9 -2 -15
-12 -17 -12 -11 3 3 9 1 16 -6 16 -6 0 -8 5 -5 10 3 5 -1 10 -9 10 -9 0 -16 6
-16 13 0 8 -11 19 -25 25 -14 6 -25 18 -25 27 0 13 -12 19 -32 16 -4 0 -4 7
-1 16 4 11 3 14 -5 9 -7 -4 -12 -2 -12 4 0 7 -7 10 -15 6 -9 -3 -15 0 -15 9 0
8 -5 15 -11 15 -5 0 -7 5 -4 10 4 6 -5 10 -20 10 -21 0 -26 4 -21 16 4 12 2
15 -9 10 -8 -3 -15 -1 -15 4 0 5 -7 7 -15 4 -9 -4 -15 0 -15 10 0 10 -9 16
-25 16 -17 0 -25 6 -26 18 0 15 -1 15 -8 -2 -7 -18 -8 -18 -14 -2 -4 9 -11 15
-16 12 -5 -4 -11 -1 -13 6 -4 12 -17 14 -102 17 -27 1 -37 5 -33 14 3 8 -1 14
-9 14 -7 0 -11 -4 -8 -8 2 -4 0 -10 -6 -14 -5 -3 -10 1 -10 9 0 9 -5 16 -11
16 -6 0 -9 -6 -6 -13 3 -8 -4 -14 -16 -15 -17 -1 -18 1 -7 8 8 5 11 12 7 16
-4 4 -13 2 -19 -4 -7 -7 -17 -12 -22 -12 -6 0 -4 4 4 10 10 6 5 9 -18 8 -18
-1 -32 -5 -32 -10 0 -5 4 -7 9 -3 5 3 12 2 14 -3 9 -14 -70 -7 -89 8 -18 14
-18 14 -5 -2 12 -17 10 -18 -32 -18 -33 0 -49 -5 -56 -17 -7 -12 -10 -14 -11
-4 0 10 -3 11 -13 2 -8 -6 -17 -8 -20 -4 -4 3 -7 1 -7 -6 0 -7 -4 -9 -10 -6
-5 3 -10 2 -10 -4 0 -5 -12 -11 -27 -13 -16 -2 -27 -8 -26 -15 2 -8 -7 -13
-21 -13 -14 0 -31 -7 -40 -15 -8 -8 -22 -15 -30 -15 -9 0 -16 -8 -16 -17 0 -9
-3 -13 -7 -10 -3 4 -11 0 -17 -9 -6 -8 -22 -16 -34 -17 -14 -1 -21 -6 -18 -14
3 -8 -3 -13 -15 -13 -15 0 -19 -5 -15 -15 4 -11 0 -15 -12 -13 -10 2 -16 -3
-14 -10 1 -8 -2 -11 -8 -7 -7 4 -14 -2 -17 -13 -3 -13 -11 -18 -19 -15 -8 3
-14 0 -14 -6 0 -15 -37 -51 -44 -43 -3 3 -6 -1 -6 -9 0 -16 -40 -55 -52 -51
-5 1 -8 -5 -8 -13 0 -8 -4 -15 -10 -15 -5 0 -10 -7 -10 -15 0 -8 -6 -15 -13
-15 -17 0 -39 -38 -31 -52 4 -7 3 -8 -4 -4 -7 4 -12 2 -12 -4 0 -7 -7 -9 -16
-6 -8 3 -12 2 -9 -4 3 -6 0 -10 -7 -10 -9 0 -9 -3 2 -10 13 -8 12 -10 -2 -10
-10 0 -18 -5 -18 -11 0 -5 -6 -7 -12 -3 -10 6 -10 4 0 -8 11 -14 10 -16 -8
-11 -17 4 -19 2 -13 -13 6 -17 5 -18 -12 -4 -11 9 -16 10 -11 2 4 -7 2 -12 -7
-12 -8 0 -18 -7 -21 -16 -3 -8 -10 -12 -16 -9 -9 6 -14 -8 -11 -27 0 -5 -2 -7
-7 -7 -22 4 -42 -2 -37 -11 3 -6 -3 -10 -14 -10 -12 0 -21 -7 -21 -15 0 -13
-10 -17 -37 -14 -4 0 -10 -8 -14 -18 -7 -17 -8 -17 -8 1 -1 19 -1 19 -15 1 -9
-12 -20 -16 -35 -12 -18 4 -20 3 -10 -9 9 -12 5 -14 -24 -14 -20 0 -39 -5 -43
-12 -4 -6 -3 -8 4 -4 6 3 13 2 16 -3 3 -4 -2 -8 -12 -8 -61 0 -92 -4 -88 -11
3 -5 -1 -9 -9 -9 -8 0 -12 3 -10 7 2 4 -2 7 -10 7 -8 0 -12 -4 -9 -9 6 -9 3
-9 -36 -12 -14 0 -31 -5 -39 -10 -10 -6 -12 -6 -7 3 9 15 -25 11 -36 -3 -8
-12 -40 -17 -33 -6 3 4 -11 10 -30 12 -27 3 -35 0 -36 -12 0 -10 -3 -9 -9 5
l-9 20 0 -20 c-1 -15 -3 -17 -10 -6 -5 8 -30 14 -62 16 -75 4 -76 4 -59 16 13
9 12 10 -2 5 -10 -3 -26 -9 -35 -12 -15 -5 -16 -4 -3 5 12 9 9 11 -15 12 -16
1 -37 1 -45 0 -10 0 -11 1 -2 5 20 9 14 19 -14 22 -14 1 -32 9 -40 17 -9 8
-25 15 -37 15 -18 0 -19 2 -7 10 13 8 12 10 -3 10 -10 0 -16 4 -12 9 3 5 -4
12 -15 16 -11 3 -20 13 -20 21 0 8 -4 12 -10 9 -5 -3 -10 3 -10 14 0 12 -7 21
-15 21 -8 0 -14 3 -14 8 1 4 1 23 -1 42 -1 30 -3 32 -11 15 -8 -17 -9 -16 -6
8 3 15 1 27 -3 27 -4 0 -6 18 -5 40 2 22 -1 40 -6 40 -4 0 -5 7 -2 17 4 11 3
14 -5 9 -15 -9 -15 -1 -1 26 8 15 8 19 0 14 -8 -5 -11 131 -11 488 l0 496 80
0 80 0 0 -41 c0 -29 3 -38 13 -33 7 5 6 0 -3 -11 -9 -11 -10 -16 -2 -11 12 7
13 5 16 -58 1 -19 9 -32 21 -37 13 -5 15 -8 5 -8 -9 -1 -11 -4 -5 -9 6 -4 12
-18 13 -32 2 -14 8 -26 13 -28 5 -2 9 -14 9 -27 0 -13 5 -25 11 -27 6 -2 12
-16 12 -31 1 -18 8 -27 19 -27 12 0 16 -6 13 -20 -2 -12 2 -23 10 -27 8 -3 15
-11 15 -19 0 -8 7 -14 15 -14 9 0 15 -9 15 -25 0 -16 6 -25 16 -25 8 0 13 -4
10 -9 -3 -5 1 -11 9 -15 8 -3 15 -12 15 -21 0 -8 7 -15 15 -15 8 0 15 -4 15
-10 0 -5 7 -10 15 -10 8 0 14 -6 13 -12 -2 -7 7 -14 20 -16 13 -2 26 -10 29
-18 3 -8 13 -14 22 -14 14 0 14 -2 1 -10 -12 -8 -9 -10 13 -10 19 0 27 -5 28
-17 0 -15 2 -15 9 2 7 17 9 17 9 3 1 -13 9 -18 30 -18 17 0 33 -5 37 -12 4 -6
3 -8 -4 -4 -6 3 -13 3 -16 -2 -3 -5 15 -8 39 -7 25 1 45 -2 45 -8 0 -5 7 -4
15 3 13 11 14 10 9 -5 -6 -15 -2 -17 39 -14 25 2 43 1 40 -3 -2 -5 1 -8 6 -8
6 0 11 5 11 11 0 5 5 7 12 3 7 -5 27 -8 45 -9 26 0 32 3 28 14 -4 10 1 9 16
-5 17 -14 21 -15 17 -4 -4 10 0 16 12 16 10 0 17 -5 16 -11 -2 -5 -1 -7 1 -3
2 4 10 6 16 4 7 -1 9 -1 5 1 -21 12 -2 18 53 18 33 0 63 4 66 9 4 5 1 6 -5 2
-6 -3 -13 -2 -17 4 -5 8 57 16 88 11 5 -1 6 3 2 9 -3 6 -12 7 -18 4 -7 -4 -8
-3 -4 2 9 9 14 11 47 13 12 0 20 8 21 19 0 14 2 14 9 -3 8 -18 9 -19 9 -1 1
12 6 16 17 12 12 -4 15 -2 10 9 -4 11 1 15 20 15 13 0 27 7 30 15 4 8 12 15
20 15 8 0 13 6 11 13 -1 6 3 11 10 10 7 -2 17 6 23 17 6 11 15 18 21 15 5 -4
9 1 9 9 0 9 5 16 10 16 6 0 10 7 10 15 0 9 6 12 15 9 10 -4 15 0 15 15 0 12 6
21 16 21 8 0 13 4 10 8 -2 4 -1 14 5 22 6 10 9 11 9 3 0 -7 4 -13 9 -13 5 0 9
6 8 13 -1 32 4 48 13 42 6 -3 10 3 10 15 0 14 4 19 13 14 7 -5 7 -2 -2 10 -12
14 -12 17 -1 14 8 -2 14 2 15 7 1 16 16 36 24 31 3 -3 6 11 6 30 -1 25 3 34
14 34 9 0 12 3 6 8 -13 9 -18 35 -5 27 8 -5 17 66 11 98 -1 5 3 6 9 2 6 -4 8
-16 5 -28 -5 -17 -4 -18 4 -8 6 10 10 226 11 585 2 673 2 634 7 619 10 -28 18
-11 18 35 -1 55 4 74 16 66 5 -3 9 9 9 26 0 25 4 31 15 26 9 -3 15 -1 14 7 -3
28 2 44 21 65 12 12 18 22 15 22 -4 0 1 7 9 16 9 8 13 20 10 26 -4 7 -2 8 5 4
6 -4 14 0 17 8 3 9 12 16 20 16 8 0 13 5 12 12 -2 7 3 13 10 14 6 1 15 3 20 4
4 1 11 2 15 1 5 -1 6 3 2 9 -3 5 -1 10 5 10 6 0 8 6 4 13 -4 6 -4 9 0 5 9 -8
68 11 78 25 9 15 27 17 161 17 73 1 124 -3 132 -10 7 -6 26 -13 42 -16 15 -3
36 -13 46 -22 17 -15 17 -15 12 4 -5 14 -3 13 7 -4 8 -12 17 -19 21 -16 4 4 7
2 7 -4 0 -6 12 -12 28 -14 15 -2 26 -8 24 -15 -1 -7 4 -13 12 -13 8 0 16 -7
20 -15 3 -8 11 -14 18 -13 7 2 13 -4 13 -12 0 -8 7 -14 14 -12 7 1 10 -2 6 -8
-3 -5 1 -13 9 -16 9 -3 16 -13 16 -21 0 -8 5 -11 10 -8 6 4 13 -8 17 -25 3
-18 11 -34 18 -36 6 -3 11 -22 11 -44 -1 -29 2 -36 12 -28 13 11 13 13 16
-105 1 -48 -3 -67 -11 -67 -7 0 -13 -5 -13 -11 0 -5 4 -8 8 -5 5 3 9 -1 9 -9
0 -8 -4 -12 -9 -9 -8 5 -12 -16 -10 -50 2 -12 -3 -16 -12 -13 -9 4 -14 -3 -15
-19 -5 -62 -5 -63 -18 -53 -9 8 -11 6 -8 -11 3 -15 -3 -24 -18 -30 -13 -5 -16
-9 -7 -10 12 0 12 -3 -2 -14 -10 -7 -15 -16 -11 -19 3 -4 1 -7 -5 -7 -7 0 -12
-15 -12 -35 0 -19 -5 -35 -11 -35 -5 0 -7 5 -3 12 5 7 3 8 -6 3 -10 -6 -10
-10 2 -19 17 -13 18 -15 18 -62 0 -19 4 -33 9 -30 5 3 11 -1 14 -9 4 -10 1
-12 -11 -8 -9 3 -3 -4 13 -16 17 -11 37 -21 45 -22 10 0 8 -3 -5 -9 -20 -9
-20 -9 0 -9 12 -1 26 -6 32 -12 15 -15 113 -20 110 -6 -1 6 5 12 13 13 8 0 23
2 33 2 9 1 17 9 17 18 0 8 5 12 10 9 6 -3 10 1 10 9 0 10 9 16 23 16 18 0 19
2 7 10 -8 5 -10 10 -5 10 10 0 41 59 37 72 -1 4 6 4 15 1 10 -4 14 -2 10 4
-10 16 3 44 17 36 6 -4 5 1 -3 11 -11 13 -11 16 -2 14 8 -2 15 8 17 22 3 13 9
29 14 34 6 6 10 20 10 32 0 12 4 24 10 26 7 2 14 35 19 91 1 5 6 5 13 1 7 -5
8 -3 2 7 -12 20 -14 40 -3 33 14 -8 8 285 -5 294 -11 7 -12 10 -14 63 -1 17
-6 28 -12 24 -6 -4 -10 7 -10 25 0 25 -4 31 -16 26 -8 -3 -12 -2 -9 3 3 5 0
13 -6 17 -7 4 -7 9 -1 13 5 3 6 15 1 26 -4 11 -8 14 -8 8 -1 -7 -5 -13 -10
-13 -6 0 -8 9 -6 20 2 12 -2 23 -10 27 -8 3 -15 11 -15 19 0 8 -4 14 -10 14
-5 0 -10 7 -10 15 0 8 -5 15 -11 15 -5 0 -7 6 -3 13 5 7 0 6 -11 -3 -10 -8
-16 -10 -12 -3 9 14 -2 45 -14 37 -5 -3 -9 5 -9 17 0 22 0 22 -16 3 -8 -10
-13 -13 -9 -6 10 19 -5 37 -17 21 -8 -11 -9 -10 -4 3 3 10 1 20 -5 23 -5 4 -6
12 -2 18 4 7 -2 5 -12 -3 -11 -9 -16 -10 -11 -2 4 7 1 12 -8 12 -16 0 -56 34
-56 48 0 7 -4 8 -36 11 -8 0 -12 6 -9 11 4 6 -7 10 -27 10 -25 0 -29 3 -18 10
16 10 17 10 -30 14 -8 1 -14 8 -12 16 3 11 0 11 -13 0 -13 -11 -15 -10 -10 2
5 12 -4 14 -40 14 -39 -1 -43 1 -28 12 14 10 10 12 -29 12 -27 0 -48 5 -50 12
-5 14 -49 18 -243 18 -102 -1 -151 -4 -156 -12 -7 -12 -21 -16 -71 -20 -15 -1
-24 -6 -22 -10 5 -7 -19 -12 -53 -11 -7 1 -13 -5 -13 -12 0 -8 -12 -15 -27
-17 -16 -2 -27 -8 -25 -15 1 -8 -9 -13 -29 -13 -16 0 -28 -4 -24 -9 3 -6 -4
-15 -15 -21 -11 -6 -18 -15 -15 -20 3 -6 -1 -7 -9 -4 -11 4 -16 0 -16 -10 0
-9 -8 -16 -21 -16 -13 0 -18 -4 -13 -12 5 -8 2 -9 -10 -5 -9 4 -15 3 -11 -2 3
-5 -2 -16 -10 -24 -8 -9 -15 -22 -15 -29 0 -10 -3 -9 -10 2 -9 13 -10 13 -11
0 -1 -8 -1 -19 0 -24 1 -5 -5 -6 -14 -2 -9 3 -13 2 -10 -4 3 -5 -3 -17 -15
-27 -11 -10 -20 -30 -21 -48 0 -16 -3 -24 -6 -17 -8 21 -23 13 -23 -13 0 -14
-6 -28 -13 -31 -7 -2 -14 -14 -14 -27 -1 -12 -7 -23 -13 -25 -5 -2 -10 -16
-10 -30 0 -15 -5 -34 -11 -42 -9 -13 -10 -12 -5 3 3 11 2 16 -4 12 -6 -3 -10
-22 -10 -41 0 -19 -3 -33 -8 -30 -4 2 -8 -8 -9 -22 -4 -54 -8 -67 -23 -80 -13
-10 -13 -11 2 -6 14 5 16 1 13 -18 -3 -12 -9 -24 -15 -26 -5 -2 -10 -32 -10
-66 0 -36 -5 -68 -12 -75 -10 -10 -10 -12 -1 -7 9 5 12 -17 10 -91 -2 -75 -5
-97 -15 -95 -8 1 -11 -2 -7 -8 3 -6 11 -8 16 -5 14 9 11 -99 -3 -114 -10 -11
-10 -13 0 -7 8 5 12 -2 12 -26 0 -19 -6 -40 -12 -47 -8 -9 -9 -11 -1 -7 15 8
16 -93 0 -113 -9 -11 -9 -13 0 -8 8 5 11 -54 11 -240 0 -193 -3 -244 -12 -231
-10 13 -12 10 -13 -24 -1 -22 -8 -47 -15 -56 -10 -12 -10 -14 0 -8 6 4 12 2
12 -3 0 -6 -8 -11 -17 -11 -15 0 -16 -2 -3 -10 10 -6 11 -10 3 -10 -7 0 -13
-8 -13 -17 0 -14 -2 -15 -9 -5 -6 10 -10 7 -15 -13 -4 -14 -4 -31 0 -37 4 -6
3 -8 -3 -5 -6 4 -19 -1 -29 -9 -10 -9 -12 -12 -4 -8 11 5 12 4 4 -5 -6 -7 -20
-14 -30 -15 -11 -2 -20 -8 -20 -14 -1 -7 -2 -18 -3 -24 -1 -9 -4 -8 -11 2 -5
8 -10 10 -10 4 0 -7 -9 -14 -21 -17 -12 -3 -18 -10 -14 -16 3 -7 -3 -11 -15
-11 -12 0 -28 -6 -36 -14 -8 -8 -25 -13 -38 -10 -14 2 -29 -3 -36 -11 -12 -14
-15 -14 -30 0 -12 11 -20 13 -25 5 -3 -6 -1 -9 6 -8 6 2 13 -2 16 -9 4 -12
-21 -12 -33 0 -4 3 -16 1 -28 -5 -19 -10 -20 -10 -7 5 17 21 8 22 -13 1 -9 -8
-16 -11 -16 -5 0 5 -13 8 -30 6 -18 -2 -29 1 -27 8 1 6 -7 11 -18 12 -12 0
-19 6 -17 15 3 12 1 12 -9 3 -9 -9 -19 -4 -45 23 -18 20 -36 36 -41 37 -4 1
-7 8 -7 15 2 10 -1 10 -14 0 -12 -10 -14 -10 -8 0 4 6 3 12 -3 12 -6 0 -8 7
-4 15 3 10 0 15 -8 13 -8 -2 -15 7 -17 22 -2 14 -11 31 -20 38 -13 10 -13 12
-1 12 12 0 12 2 0 9 -8 5 -11 16 -8 24 4 11 1 14 -9 10 -14 -5 -18 5 -15 39 1
9 -6 29 -16 45 -14 21 -14 25 -3 18 13 -8 13 -7 1 8 -14 18 -18 18 177 19 23
1 42 5 42 10 0 5 -6 6 -12 2 -8 -4 -10 -3 -5 2 5 5 17 10 28 10 10 1 28 2 40
3 11 0 18 5 14 10 -3 5 -1 12 5 16 5 3 10 0 10 -7 0 -10 3 -9 9 2 6 8 7 18 5
22 -3 4 3 8 13 8 15 0 16 2 3 10 -10 6 -11 10 -2 10 6 0 12 6 12 14 0 8 -6 17
-12 19 -10 4 -10 6 0 6 6 1 12 6 12 12 0 5 -4 8 -9 5 -5 -3 -12 11 -16 31 -5
27 -9 33 -16 22 -6 -10 -9 -10 -10 -1 -4 30 -33 94 -44 93 -5 -1 -10 16 -12
36 -2 21 -11 42 -19 46 -12 7 -13 12 -3 23 6 8 7 14 2 14 -10 0 -9 52 1 69 4
5 3 12 -2 15 -9 5 -7 89 2 105 3 5 0 12 -6 14 -8 3 -6 6 5 6 9 1 17 6 17 12 0
5 -4 8 -9 5 -13 -9 -21 19 -9 35 8 11 9 10 4 -4 -3 -10 -2 -15 4 -12 9 6 7 56
-5 90 -5 15 -5 17 3 6 10 -14 12 14 13 241 0 34 6 51 17 59 15 9 15 10 1 6
-15 -5 -17 5 -16 71 1 209 -3 273 -15 266 -9 -5 -9 -2 1 9 12 15 11 17 -5 18
-11 0 -14 3 -6 6 6 2 9 10 5 16 -4 7 -8 29 -9 50 -1 21 -5 41 -9 45 -5 4 -5
-1 -2 -10 3 -10 3 -20 -2 -22 -4 -3 -8 16 -10 42 -1 26 -9 54 -17 63 -14 15
-21 34 -23 62 -1 5 -6 5 -11 2 -6 -4 -10 -3 -9 2 4 24 -2 53 -11 48 -9 -5 -15
15 -11 38 0 4 -6 7 -14 7 -13 0 -20 18 -16 43 0 4 -6 7 -15 7 -8 0 -13 4 -9 9
3 6 -4 15 -15 21 -11 6 -18 15 -15 19 3 5 -2 11 -10 15 -8 3 -15 15 -15 26 0
11 -7 20 -15 20 -8 0 -15 7 -15 15 0 8 -7 15 -15 15 -9 0 -12 6 -8 17 5 12 2
15 -10 10 -11 -4 -17 -1 -17 8 0 8 -7 15 -15 15 -8 0 -15 7 -15 15 0 8 -7 15
-15 15 -9 0 -12 6 -9 15 5 11 2 13 -10 9 -11 -4 -16 -1 -16 10 0 9 -7 16 -15
16 -8 0 -15 7 -15 15 0 8 -7 15 -16 15 -9 0 -12 5 -8 13 5 7 0 6 -11 -3 -17
-14 -18 -13 -12 3 4 10 3 16 -2 12 -5 -3 -16 2 -25 11 -9 8 -25 16 -36 17 -11
1 -20 7 -20 14 0 7 -7 13 -15 13 -8 0 -15 8 -15 18 0 14 -2 15 -10 2 -7 -11
-10 -11 -10 -2 0 7 -4 11 -9 7 -5 -3 -12 -1 -16 4 -3 6 -11 9 -18 7 -7 -1 -9
-1 -4 1 15 9 6 22 -12 18 -11 -2 -25 3 -32 11 -6 8 -20 14 -31 14 -10 0 -29 6
-41 14 -12 7 -32 13 -44 12 -12 -2 -25 4 -28 12 -3 8 -12 11 -20 8 -8 -3 -15
-2 -15 3 0 5 -11 7 -25 5 -14 -1 -32 4 -40 13 -13 13 -15 12 -16 -4 0 -16 -1
-16 -9 2 -5 11 -9 14 -9 8 -1 -7 -6 -13 -12 -13 -5 0 -7 5 -4 10 3 6 -3 10
-14 10 -10 0 -22 -6 -24 -12 -4 -10 -6 -10 -6 0 -1 16 -406 18 -416 2 -5 -8
-12 -7 -23 2 -12 10 -14 10 -8 1 4 -7 3 -13 -3 -13 -5 0 -12 6 -14 13 -4 8 -6
6 -6 -4z m3106 -525 c-3 -3 -12 -4 -19 -1 -8 3 -5 6 6 6 11 1 17 -2 13 -5z
m-1662 -223 c3 -5 2 -12 -3 -15 -5 -3 -9 1 -9 9 0 17 3 19 12 6z m2312 -403
c2 -17 0 -19 -7 -8 -5 8 -6 18 -4 22 8 12 10 10 11 -14z m-5303 -98 c-6 -6
-10 -3 -10 10 0 13 4 16 10 10 7 -7 7 -13 0 -20z m5001 -630 c3 -5 1 -10 -4
-10 -6 0 -11 5 -11 10 0 6 2 10 4 10 3 0 8 -4 11 -10z m-3020 -540 c3 -5 1
-10 -4 -10 -6 0 -11 5 -11 10 0 6 2 10 4 10 3 0 8 -4 11 -10z m-1 -105 c-4 -8
-8 -15 -10 -15 -2 0 -4 7 -4 15 0 8 4 15 10 15 5 0 7 -7 4 -15z m-7 -117 c-3
-8 -6 -5 -6 6 -1 11 2 17 5 13 3 -3 4 -12 1 -19z m1933 8 c0 -3 -4 -8 -10 -11
-5 -3 -10 -1 -10 4 0 6 5 11 10 11 6 0 10 -2 10 -4z m-2235 -126 c-1 -11 -4
-22 -7 -25 -4 -5 -4 34 1 43 4 8 7 -1 6 -18z m-2 -55 c-3 -9 -8 -14 -10 -11
-3 3 -2 9 2 15 9 16 15 13 8 -4z m2542 -185 c3 -6 -1 -7 -9 -4 -18 7 -21 14
-7 14 6 0 13 -4 16 -10z m-2540 -61 c1 -11 -1 -22 -5 -24 -3 -2 -6 9 -6 25 0
33 9 32 11 -1z m1415 -29 c0 -5 -5 -10 -11 -10 -5 0 -7 5 -4 10 3 6 8 10 11
10 2 0 4 -4 4 -10z m-1104 -155 c-3 -23 -12 -26 -13 -5 -1 11 2 20 7 20 4 0 7
-7 6 -15z m4 -54 c0 -6 -4 -12 -8 -15 -5 -3 -9 1 -9 9 0 8 4 15 9 15 4 0 8 -4
8 -9z m3025 -361 c-3 -5 -12 -10 -18 -10 -7 0 -6 4 3 10 19 12 23 12 15 0z
m-3445 -80 c0 -5 -5 -10 -11 -10 -5 0 -7 5 -4 10 3 6 8 10 11 10 2 0 4 -4 4
-10z"/>
<path d="M996 5082 c-3 -4 4 -9 15 -9 23 -2 25 3 4 10 -8 4 -16 3 -19 -1z"/>
<path d="M1285 4970 c3 -5 8 -10 11 -10 2 0 4 5 4 10 0 6 -5 10 -11 10 -5 0
-7 -4 -4 -10z"/>
<path d="M5990 4690 c0 -5 5 -10 11 -10 5 0 7 5 4 10 -3 6 -8 10 -11 10 -2 0
-4 -4 -4 -10z"/>
<path d="M4750 4440 c0 -5 5 -10 11 -10 5 0 7 5 4 10 -3 6 -8 10 -11 10 -2 0
-4 -4 -4 -10z"/>
<path d="M4757 4343 c-10 -9 -9 -33 1 -33 4 0 8 9 8 20 0 23 0 22 -9 13z"/>
<path d="M5310 4319 c0 -5 5 -7 10 -4 6 3 10 8 10 11 0 2 -4 4 -10 4 -5 0 -10
-5 -10 -11z"/>
<path d="M2260 3921 c0 -6 4 -12 8 -15 5 -3 9 1 9 9 0 8 -4 15 -9 15 -4 0 -8
-4 -8 -9z"/>
<path d="M2266 3873 c-6 -14 -5 -15 5 -6 7 7 10 15 7 18 -3 3 -9 -2 -12 -12z"/>
<path d="M390 3689 c0 -5 5 -7 10 -4 6 3 10 8 10 11 0 2 -4 4 -10 4 -5 0 -10
-5 -10 -11z"/>
<path d="M3350 3160 c0 -5 5 -10 10 -10 6 0 10 5 10 10 0 6 -4 10 -10 10 -5 0
-10 -4 -10 -10z"/>
<path d="M3350 3100 c0 -5 5 -10 10 -10 6 0 10 5 10 10 0 6 -4 10 -10 10 -5 0
-10 -4 -10 -10z"/>
<path d="M3350 3040 c0 -5 5 -10 10 -10 6 0 10 5 10 10 0 6 -4 10 -10 10 -5 0
-10 -4 -10 -10z"/>
<path d="M3640 2569 c0 -5 5 -7 10 -4 6 3 10 8 10 11 0 2 -4 4 -10 4 -5 0 -10
-5 -10 -11z"/>
<path d="M480 2459 c0 -5 5 -7 10 -4 6 3 10 8 10 11 0 2 -4 4 -10 4 -5 0 -10
-5 -10 -11z"/>
<path d="M3350 2249 c0 -5 5 -7 10 -4 6 3 10 8 10 11 0 2 -4 4 -10 4 -5 0 -10
-5 -10 -11z"/>
<path d="M3660 2060 c0 -5 5 -10 11 -10 5 0 7 5 4 10 -3 6 -8 10 -11 10 -2 0
-4 -4 -4 -10z"/>
</g>
</svg>
