<?xml version="1.0" encoding="UTF-8"?>
<svg width="380px" height="416px" viewBox="0 0 380 416" version="1.1" xmlns="http://www.w3.org/2000/svg" xmlns:xlink="http://www.w3.org/1999/xlink">
    <title>win-instantly</title>
    <defs>
        <linearGradient x1="29.0297384%" y1="89.6612329%" x2="70.9702636%" y2="10.3435988%" id="linearGradient-1">
            <stop stop-color="#00B9E3" offset="0%"></stop>
            <stop stop-color="#0097CE" offset="100%"></stop>
        </linearGradient>
        <linearGradient x1="6.49670227e-07%" y1="49.9984351%" x2="100%" y2="49.9984351%" id="linearGradient-2">
            <stop stop-color="#FFFFFF" stop-opacity="0.6" offset="0%"></stop>
            <stop stop-color="#FFFFFF" stop-opacity="0.3" offset="100%"></stop>
        </linearGradient>
        <linearGradient x1="0%" y1="49.998413%" x2="100%" y2="49.998413%" id="linearGradient-3">
            <stop stop-color="#FFFFFF" offset="0%"></stop>
            <stop stop-color="#FFFFFF" stop-opacity="0" offset="100%"></stop>
        </linearGradient>
        <linearGradient x1="50.0070242%" y1="99.9998401%" x2="50.0070242%" y2="0%" id="linearGradient-4">
            <stop stop-color="#FFFFFF" offset="0%"></stop>
            <stop stop-color="#FFFFFF" stop-opacity="0" offset="100%"></stop>
        </linearGradient>
    </defs>
    <g id="Page-1" stroke="none" stroke-width="1" fill="none" fill-rule="evenodd">
        <g id="win-instantly" fill-rule="nonzero">
            <path d="M-8.87645572e-06,142.83 L-8.87645572e-06,272.89 C-8.87645572e-06,300.372219 14.6607313,325.767104 38.46,339.51 L151.09,404.51 C174.889131,418.250435 204.210869,418.250435 228.01,404.51 L340.65,339.51 C364.449269,325.767104 379.11,300.372219 379.11,272.89 L379.11,142.83 C379.11,115.350248 364.449195,89.9580895 340.65,76.22 L227.999991,11.19 C204.200869,-2.55043459 174.879131,-2.55043459 151.08,11.19 L38.45,76.19 C14.6453691,89.9359886 -0.0131770284,115.341594 -8.87645572e-06,142.83 Z" id="Path" fill="url(#linearGradient-1)"></path>
            <g id="Group" opacity="0.3">
                <path d="M189.71,-0.000138275485 C177.173659,-0.024724215 164.853773,3.2665586 153.999999,9.54 L35.61,77.86 C13.5709173,90.5795048 -0.00472402239,114.093842 -1.2324894e-06,139.54 L-1.2324894e-06,276.18 C0.00350429488,290.000202 4.03072655,303.520411 11.59,315.09 L189.71,208.73 L189.71,-0.000138275485 Z" id="Path" fill="url(#linearGradient-2)"></path>
                <path d="M367.54,315.05 C375.083721,303.489137 379.103528,289.984392 379.11,276.18 L379.11,139.54 C379.11,114.094948 365.536062,90.5825261 343.5,77.86 L225.16,9.54 C214.381476,3.31330899 202.157798,0.023777599 189.71,0 L189.71,208.73 L367.54,315.05 Z" id="Path" fill="url(#linearGradient-3)" opacity="0"></path>
                <path d="M189.71,208.73 L11.59,315.09 C17.6897934,324.460297 25.9120411,332.261155 35.59,337.86 L154,406.18 C176.032451,418.900441 203.177549,418.900441 225.21,406.18 L343.5,337.86 C353.1829,332.250409 361.405657,324.435363 367.5,315.05 L189.71,208.73 Z" id="Path" fill="url(#linearGradient-4)" opacity="0.5"></path>
            </g>
            <path d="M320.1,91.37 L225.16,36.56 C203.127549,23.8395587 175.982451,23.8395587 153.95,36.56 L59,91.37 C36.9647663,104.092047 23.3932138,127.605905 23.3999975,153.05 L23.3999975,262.68 C23.3999975,288.120522 36.9678612,311.629739 59,324.35 L154,379.17 C176.032451,391.890441 203.177549,391.890441 225.21,379.17 L320.15,324.35 C342.182968,311.62926 355.76,288.12148 355.76,262.68 L355.76,153.05 C355.750288,127.59463 342.155308,104.079813 320.1,91.37 Z M346.45,257.37 C346.430683,282.796634 332.859091,306.284902 310.84,319 L225.16,368.46 C203.130316,381.190764 175.979684,381.190764 153.95,368.46 L68.26,319 C46.2308064,306.271915 32.66,282.761885 32.66,257.32 L32.66,158.39 C32.66,132.95003 46.2293714,109.441771 68.26,96.72 L154,47.25 C176.032451,34.5295587 203.177549,34.5295587 225.21,47.25 L310.89,96.72 C332.925988,109.437719 346.5,132.947415 346.5,158.39 L346.45,257.37 Z" id="Shape" fill="#FFFFFF" opacity="0.95"></path>
            <g id="Group-2" transform="translate(81.971056, 106.028944)" fill="#FFFFFF">
                <path d="M103.613854,0.0949146245 L103.837732,0.148570756 L108.028,1.27 L108.028668,92.2051823 C107.835199,92.2822258 107.64492,92.3740883 107.459282,92.481149 C105.456661,93.6359434 104.718051,96.146494 105.744951,98.1917041 L105.840155,98.3709099 L108.028,102.156 L108.028317,127.456351 C105.333081,127.192573 102.601561,127.771808 100.225636,129.142046 C97.3271183,130.813742 95.186593,133.53069 94.2374956,136.728181 L94.1435809,137.060647 L94.0561408,137.406902 C93.2855285,140.644547 93.7817245,144.062125 95.4536115,146.9524 C97.1831446,149.947126 100.031999,152.133215 103.374449,153.031403 C104.905185,153.441114 106.481551,153.564948 108.028563,153.413054 L108.028188,182.155674 C107.204816,182.198206 106.379919,182.299473 105.559479,182.461077 C100.271542,183.502369 95.7662783,186.932467 93.3594079,191.749326 C92.4638093,193.537283 90.4685192,194.480292 88.5293011,194.054434 L88.335609,194.007266 L54.281466,184.892481 C53.1664649,184.594045 52.2162332,183.867579 51.6387667,182.868474 C51.0998377,181.935986 50.9276557,180.840933 51.1513484,179.793888 L51.2053525,179.570332 L86.1204731,49.4080665 L98.7300622,52.7830946 C101.051575,53.4044608 103.4381,52.0281094 104.060148,49.7091392 C104.665383,47.4528439 103.377353,45.1350709 101.168964,44.4390995 L100.982821,44.3848921 L88.3732324,41.009864 L98.5093021,3.22297435 C98.8064089,2.10875111 99.5357727,1.15834409 100.535974,0.581510145 C101.469485,0.0431715125 102.56535,-0.127377908 103.613854,0.0949146245 Z M85.7660435,6.26273983 C86.622816,6.4919551 87.3626603,7.02805511 87.8461313,7.76465007 L87.9530871,7.93814418 L88.6850772,9.20530837 L77.3666748,51.402583 L76.0321301,52.1716084 C74.3606744,53.1355667 73.7517755,55.2310404 74.6188331,56.9242278 L74.7073633,57.0867774 C74.9374902,57.4849322 75.2325465,57.8223771 75.5715458,58.0935218 L51.715687,147.025595 L20.2748106,92.6271244 L29.6463931,87.2223657 C31.3717667,86.2273119 31.9649258,84.0265644 30.9711598,82.3071967 C30.0084491,80.6415593 27.9094244,80.0383919 26.2105535,80.9069728 L26.0474474,80.9956372 L16.6758648,86.4003959 L0.482761111,58.3838409 C0.00423319948,57.5587548 -0.124846072,56.5765195 0.123749088,55.6541781 C0.354604386,54.7977476 0.892968763,54.0600785 1.63218842,53.5764212 L1.80629451,53.4693786 L27.1157005,38.8729929 C28.5461168,38.0480463 30.3449984,38.2997813 31.4905432,39.460361 L31.6197639,39.5982978 L31.7687376,39.7635761 C34.7210014,42.9884404 38.9907895,44.6995378 43.3720008,44.4012415 C47.8267587,44.0966587 51.8944888,41.7507263 54.3846669,38.0500406 C56.8082073,34.4476804 57.4729353,29.9551372 56.2079088,25.8245982 L56.0631045,25.3704709 C55.607094,23.8383622 56.220769,22.1866738 57.5631277,21.3188428 L57.7212297,21.2222385 L83.0293692,6.62658317 C83.85805,6.14866813 84.8420989,6.01662304 85.7660435,6.26273983 Z M44.9553731,70.0995301 L44.7922668,70.1881946 L38.5451509,73.7910177 C36.8197773,74.7860715 36.2266182,76.986819 37.2203841,78.7061867 C38.1830949,80.3718241 40.2821196,80.9749915 41.9809905,80.1064106 L42.1440966,80.0177462 L48.3924492,76.4142099 C50.116588,75.4198683 50.7097471,73.2191207 49.7159812,71.4997531 C48.7532704,69.8341157 46.6542457,69.2309482 44.9553731,70.0995301 Z M63.6994808,59.2894689 L63.5363747,59.3781333 L57.2892886,62.9809393 C55.563915,63.975993 54.9707559,66.1767406 55.9645219,67.8961082 C56.9272326,69.5617456 59.0262573,70.1649131 60.7251282,69.2963322 L60.8882343,69.2076678 L67.1353204,65.6048618 C68.8606941,64.6098081 69.4538532,62.4090605 68.4600872,60.6896929 C67.4973765,59.0240555 65.3983517,58.420888 63.6994808,59.2894689 Z" id="Combined-Shape"></path>
                <path d="M108.028395,1.2700562 L137.891875,9.26335546 C139.826071,9.78105394 141.148271,11.546557 141.119783,13.5290065 L141.094364,14.085915 C140.884107,19.3324991 143.060294,24.4024336 147.028303,27.8668522 C151.086939,31.4083479 156.560124,32.873277 161.845991,31.8328908 C167.018973,30.8142357 171.445009,27.5083134 173.888289,22.8555636 L174.141406,22.3674355 C175.076779,20.6940921 177.003753,19.8266243 178.87833,20.2382875 L179.072023,20.2854557 L213.124461,29.3997842 C214.239463,29.6982206 215.191356,30.4251304 215.768822,31.4242362 C216.306201,32.3563091 216.477889,33.4527789 216.255487,34.5003765 L216.201787,34.724036 L206.065717,72.5109256 L193.456132,69.1358988 C191.134619,68.5145326 188.748094,69.890884 188.126047,72.2098542 C187.520811,74.4661495 188.808842,76.7839225 191.017231,77.4798939 L191.203373,77.5341013 L203.812958,80.9091281 L168.897837,211.071394 C168.599073,212.185174 167.870155,213.133921 166.871615,213.7112 C165.938104,214.249538 164.840791,214.4197 163.792094,214.197356 L163.568195,214.143694 L129.515756,205.029366 C127.517087,204.494411 126.171894,202.627078 126.295227,200.564785 C126.621517,195.191503 124.435359,189.970271 120.377168,186.427115 C116.950101,183.434114 112.511868,181.924119 108.028395,182.155663 L108.028376,153.413072 C109.862172,153.233046 111.654727,152.665589 113.281152,151.727601 C116.279618,149.99826 118.468566,147.150826 119.364411,143.811146 C120.260748,140.469636 119.790331,136.910454 118.059179,133.915295 C116.327941,130.920113 113.477342,128.733552 110.132339,127.838243 C109.438188,127.65245 108.734498,127.525464 108.028317,127.456351 L108.028395,102.156056 L142.762957,162.253025 C143.980056,164.298142 146.617246,164.986166 148.679243,163.795573 C150.68348,162.641212 151.422136,160.130673 150.395237,158.085464 L150.300034,157.906258 L113.377232,94.0241426 L113.269514,93.8521923 C112.126518,92.1181598 109.92436,91.4502055 108.028537,92.2052344 L108.028395,1.2700562 Z M142.862715,104.551079 C139.864249,106.28042 137.676506,109.130001 136.78066,112.469681 C135.884324,115.81119 136.35308,119.369928 138.084232,122.365087 C139.815469,125.360268 142.66773,127.547274 146.011072,128.442139 C149.356246,129.337494 152.919308,128.867677 155.917775,127.138336 C158.816292,125.46664 160.95837,122.750108 161.907571,119.552644 L162.001491,119.220179 L162.088985,118.873717 C162.859912,115.634632 162.361797,112.21824 160.691514,109.328395 C158.960277,106.333213 156.111423,104.147125 152.768973,103.248936 C149.425503,102.354037 145.861158,102.821823 142.862715,104.551079 Z M162.905204,65.4626365 C162.299968,67.7189318 163.587999,70.0367047 165.796388,70.7326762 L165.98253,70.7868835 L174.389772,73.0371295 C176.711285,73.6584957 179.096148,72.2816995 179.718196,69.9627293 C180.323432,67.706434 179.036974,65.3890821 176.82867,64.6931334 L176.642531,64.638927 L168.235289,62.388681 C165.913776,61.7673148 163.527251,63.1436663 162.905204,65.4626365 Z M137.686461,58.7126968 C137.081225,60.9689921 138.369256,63.286765 140.577645,63.9827364 L140.763787,64.0369438 L149.169325,66.2867337 C151.490838,66.9080999 153.877363,65.5317484 154.499411,63.2127782 C155.104646,60.9564829 153.816615,58.63871 151.608226,57.9427385 L151.422084,57.8885312 L143.016547,55.6387413 C140.695033,55.0173751 138.308508,56.3937266 137.686461,58.7126968 Z M112.465974,51.9622902 C111.860738,54.2185855 113.148769,56.5363585 115.357158,57.2323299 L115.5433,57.2865373 L123.950542,59.5367832 C126.270394,60.1577047 128.656919,58.7813533 129.278966,56.4623831 C129.884202,54.2060878 128.596171,51.8883148 126.387779,51.1923428 L126.201637,51.1381353 L117.79606,48.8883348 C115.474546,48.2669686 113.088021,49.6433201 112.465974,51.9622902 Z" id="Combined-Shape" opacity="0.87"></path>
            </g>
        </g>
    </g>
</svg>