<?xml version="1.0" encoding="utf-8"?>
<!-- Generator: Adobe Illustrator 23.0.1, SVG Export Plug-In . SVG Version: 6.00 Build 0)  -->
<svg version="1.1" id="Layer_1" xmlns="http://www.w3.org/2000/svg" xmlns:xlink="http://www.w3.org/1999/xlink" x="0px" y="0px"
	 viewBox="0 0 576 423" style="enable-background:new 0 0 576 423;" xml:space="preserve">
<style type="text/css">
	.st0{fill:#FFFFFF;}
	.st1{fill:#FFFFFF;stroke:#FFFFFF;stroke-width:7.901;stroke-linecap:round;stroke-miterlimit:10;}
	.st2{fill:#FFFFFF;stroke:#211E1F;stroke-width:39.505;stroke-miterlimit:10;}
	.st3{fill:#FFFFFF;stroke:#211E1F;stroke-width:94.8121;stroke-linecap:round;stroke-linejoin:round;stroke-miterlimit:10;}
	.st4{opacity:0.5;fill:#FFFFFF;}
</style>
<g>
	<g>
		<path class="st0" d="M332.41,253.74c-0.82,0-1.64-0.02-2.46-0.05c-0.83-0.03-1.63-0.08-2.41-0.12c-9.6-0.56-18.8-4.28-25.24-10.21
			c-10.82-9.97-10.81-26.22-10.81-38.09v-0.76c0-6.21-0.05-8.56-0.07-9.96c-0.04-2.17-0.04-2.49,0.16-8.53l-0.19-37.66
			c-0.02-4.37,3.5-7.93,7.87-7.95c0.01,0,0.03,0,0.04,0c4.35,0,7.89,3.52,7.91,7.87l0.19,37.81c0,0.1,0,0.21,0,0.31
			c-0.2,5.91-0.2,6.02-0.16,7.84c0.03,1.46,0.08,3.91,0.08,10.27v0.77c0,8.94-0.01,21.18,5.7,26.44c3.68,3.39,9.6,5.71,15.43,6.05
			c0.69,0.04,1.41,0.08,2.15,0.11c14.39,0.61,28.51-5.99,37.79-17.62c5.33-6.69,19.71-22.17,38.25-21.44
			c11.98,0.47,22.67,7.53,31.78,20.98c2.45,3.62,1.5,8.54-2.12,10.99c-3.62,2.45-8.54,1.5-10.99-2.12
			c-6.13-9.05-12.62-13.78-19.29-14.04c-9.23-0.35-19.1,7.76-25.26,15.49C368.88,245.02,350.96,253.74,332.41,253.74z"/>
		<path class="st0" d="M238.68,253.74c0.82,0,1.64-0.02,2.46-0.05c0.83-0.03,1.63-0.08,2.41-0.12c9.6-0.56,18.8-4.28,25.24-10.21
			c10.82-9.97,10.81-26.22,10.81-38.09v-0.76c0-6.21,0.05-8.56,0.07-9.96c0.04-2.17,0.04-2.49-0.16-8.53l0.19-37.66
			c0.02-4.37-3.5-7.93-7.87-7.95c-0.01,0-0.03,0-0.04,0c-4.35,0-7.89,3.52-7.91,7.87l-0.19,37.81c0,0.1,0,0.21,0,0.31
			c0.2,5.91,0.2,6.02,0.16,7.84c-0.03,1.46-0.08,3.91-0.08,10.27v0.77c0,8.94,0.01,21.18-5.7,26.44c-3.68,3.39-9.6,5.71-15.43,6.05
			c-0.69,0.04-1.41,0.08-2.15,0.11c-14.39,0.61-28.51-5.99-37.79-17.62c-5.33-6.69-19.71-22.17-38.25-21.44
			c-11.98,0.47-22.67,7.53-31.78,20.98c-2.45,3.62-1.5,8.54,2.12,10.99c3.62,2.45,8.54,1.5,10.99-2.12
			c6.13-9.05,12.62-13.78,19.29-14.04c9.23-0.35,19.1,7.76,25.26,15.49C202.2,245.02,220.13,253.74,238.68,253.74z"/>
	</g>
	<g>
		<path class="st0" d="M355.16,193.36c-1.54,0-3.09-0.1-4.64-0.31l-0.34-0.05c-8.98-1.22-20.87-7-26.54-27.56
			c-3.01-10.9-2.87-21.26-2.86-21.69c0.07-4.37,3.69-7.84,8.04-7.78c4.36,0.07,7.85,3.67,7.78,8.03l0,0
			c0,0.31,0.02,31.18,15.71,33.32l0.3,0.04c5.61,0.74,11.29-0.99,15.56-4.77c4.3-3.8,6.74-9.27,6.69-15
			c-0.32-40.07-0.12-42.25-0.03-43.18c1.89-19.85,12.04-33.68,27.84-37.94c15.44-4.16,33.4,2.23,42.69,15.2
			c9,12.57,8.44,28.32-1.55,43.21c-1.28,1.91-3.32,3.19-5.58,3.49c-2.25,0.3-4.53-0.38-6.24-1.86c-3.22-2.79-3.64-7.61-1.01-10.91
			c6-9.2,6.53-17.73,1.52-24.72c-5.5-7.68-16.55-11.61-25.7-9.14c-9.19,2.48-14.95,11.04-16.2,24.11c-0.05,0.85-0.19,6.35,0.1,41.6
			c0.08,10.32-4.3,20.15-12.04,26.99C372.11,190.23,363.75,193.36,355.16,193.36z"/>
		<path class="st0" d="M215.93,193.36c-8.6,0-16.96-3.13-23.49-8.9c-7.73-6.83-12.12-16.67-12.04-26.99
			c0.29-35.25,0.15-40.75,0.1-41.6c-1.26-13.07-7.01-21.64-16.2-24.12c-9.15-2.47-20.2,1.46-25.7,9.14
			c-5.01,6.99-4.48,15.53,1.52,24.72c2.63,3.3,2.21,8.12-1.01,10.91c-1.72,1.48-4,2.16-6.24,1.86c-2.26-0.3-4.3-1.58-5.58-3.5
			c-9.99-14.89-10.55-30.64-1.55-43.21c9.29-12.97,27.25-19.37,42.69-15.2c15.8,4.26,25.95,18.09,27.84,37.94
			c0.09,0.93,0.3,3.1-0.03,43.18c-0.05,5.74,2.39,11.2,6.69,15c4.27,3.77,9.95,5.51,15.57,4.76l0.3-0.04
			c15.68-2.14,15.7-33.01,15.7-33.32c-0.06-4.36,3.43-7.96,7.79-8.02c4.37-0.07,7.96,3.41,8.03,7.77
			c0.01,0.44,0.14,10.79-2.86,21.69c-5.67,20.56-17.56,26.34-26.53,27.56l-0.34,0.05C219.03,193.26,217.48,193.36,215.93,193.36z"/>
	</g>
	<path class="st1" d="M285.54,109.3"/>
	<path class="st1" d="M285.54,142.15"/>
	<path class="st2" d="M285.54,148.2"/>
	<path class="st3" d="M285.54,142.83"/>
	<g>
		<path class="st0" d="M78.45,383v6.05H58.66v-23.81h19.35v6.05H66.55v2.79h10.07v5.78H66.55V383H78.45z"/>
		<path class="st0" d="M101.55,389.05l-4.12-6.36l-4.01,6.36h-9.15l8.6-12.01l-8.3-11.8h9.01l4.05,5.99l3.95-5.99h8.64l-8.26,11.5
			l8.78,12.31H101.55z"/>
		<path class="st0" d="M134.03,366.33c1.63,0.73,2.89,1.77,3.78,3.13c0.88,1.36,1.33,2.95,1.33,4.76c0,1.81-0.44,3.4-1.33,4.76
			c-0.88,1.36-2.14,2.4-3.78,3.13c-1.63,0.73-3.55,1.09-5.75,1.09h-3.44v5.85h-8.03v-23.81h11.46
			C130.48,365.24,132.4,365.61,134.03,366.33z M130.22,376.28c0.54-0.49,0.82-1.17,0.82-2.06c0-0.88-0.27-1.57-0.82-2.06
			c-0.54-0.49-1.36-0.73-2.45-0.73h-2.92v5.58h2.92C128.86,377.01,129.68,376.77,130.22,376.28z"/>
		<path class="st0" d="M157.06,383.06h-2.18v5.99h-8.03v-23.81h11.46c2.2,0,4.12,0.36,5.75,1.09c1.63,0.73,2.89,1.77,3.78,3.13
			c0.88,1.36,1.33,2.95,1.33,4.76c0,1.7-0.39,3.19-1.16,4.46c-0.77,1.27-1.88,2.28-3.33,3.03l5,7.35h-8.57L157.06,383.06z
			 M160.25,372.16c-0.54-0.49-1.36-0.73-2.45-0.73h-2.92v5.58h2.92c1.09,0,1.9-0.24,2.45-0.73c0.54-0.49,0.82-1.17,0.82-2.06
			C161.07,373.34,160.8,372.65,160.25,372.16z"/>
		<path class="st0" d="M197.09,383v6.05h-19.79v-23.81h19.35v6.05h-11.46v2.79h10.07v5.78h-10.07V383H197.09z"/>
		<path class="st0" d="M208.4,388.93c-1.87-0.44-3.41-1.04-4.61-1.79l2.59-5.85c1.13,0.66,2.4,1.18,3.81,1.58
			c1.41,0.4,2.75,0.6,4.05,0.6c1.11,0,1.9-0.11,2.38-0.32c0.48-0.21,0.71-0.54,0.71-0.97c0-0.5-0.31-0.87-0.94-1.12
			c-0.62-0.25-1.65-0.52-3.08-0.82c-1.84-0.38-3.37-0.8-4.59-1.24c-1.22-0.44-2.29-1.17-3.2-2.18c-0.91-1.01-1.36-2.37-1.36-4.1
			c0-1.5,0.42-2.86,1.26-4.08c0.84-1.22,2.09-2.19,3.76-2.89c1.67-0.7,3.69-1.05,6.07-1.05c1.63,0,3.24,0.18,4.81,0.53
			c1.58,0.35,2.96,0.87,4.17,1.55l-2.41,5.82c-2.34-1.18-4.55-1.77-6.63-1.77c-2.06,0-3.1,0.5-3.1,1.5c0,0.48,0.31,0.83,0.92,1.07
			c0.61,0.24,1.62,0.49,3.03,0.77c1.81,0.34,3.34,0.73,4.59,1.17c1.25,0.44,2.33,1.16,3.25,2.16c0.92,1,1.38,2.36,1.38,4.08
			c0,1.5-0.42,2.85-1.26,4.06c-0.84,1.21-2.09,2.18-3.76,2.89c-1.67,0.71-3.69,1.07-6.07,1.07
			C212.19,389.59,210.27,389.37,208.4,388.93z"/>
		<path class="st0" d="M235.84,388.93c-1.87-0.44-3.41-1.04-4.61-1.79l2.59-5.85c1.13,0.66,2.4,1.18,3.81,1.58
			c1.41,0.4,2.75,0.6,4.05,0.6c1.11,0,1.9-0.11,2.38-0.32c0.48-0.21,0.71-0.54,0.71-0.97c0-0.5-0.31-0.87-0.94-1.12
			c-0.62-0.25-1.65-0.52-3.08-0.82c-1.84-0.38-3.37-0.8-4.59-1.24c-1.22-0.44-2.29-1.17-3.2-2.18c-0.91-1.01-1.36-2.37-1.36-4.1
			c0-1.5,0.42-2.86,1.26-4.08c0.84-1.22,2.09-2.19,3.76-2.89c1.67-0.7,3.69-1.05,6.07-1.05c1.63,0,3.24,0.18,4.81,0.53
			c1.58,0.35,2.96,0.87,4.17,1.55l-2.41,5.82c-2.34-1.18-4.55-1.77-6.63-1.77c-2.06,0-3.1,0.5-3.1,1.5c0,0.48,0.31,0.83,0.92,1.07
			c0.61,0.24,1.62,0.49,3.03,0.77c1.81,0.34,3.34,0.73,4.59,1.17c1.25,0.44,2.33,1.16,3.25,2.16c0.92,1,1.38,2.36,1.38,4.08
			c0,1.5-0.42,2.85-1.26,4.06c-0.84,1.21-2.09,2.18-3.76,2.89c-1.67,0.71-3.69,1.07-6.07,1.07
			C239.64,389.59,237.71,389.37,235.84,388.93z"/>
		<path class="st0" d="M280.99,388.01c-2.02-1.05-3.6-2.53-4.74-4.42c-1.15-1.89-1.72-4.04-1.72-6.45c0-2.4,0.57-4.55,1.72-6.45
			c1.14-1.89,2.73-3.37,4.74-4.42c2.02-1.05,4.29-1.58,6.8-1.58c2.31,0,4.38,0.41,6.19,1.22c1.81,0.82,3.31,2,4.49,3.54l-5.07,4.52
			c-1.47-1.86-3.21-2.79-5.2-2.79c-1.68,0-3.03,0.54-4.05,1.62c-1.02,1.08-1.53,2.52-1.53,4.34c0,1.81,0.51,3.26,1.53,4.34
			c1.02,1.08,2.37,1.62,4.05,1.62c1.99,0,3.73-0.93,5.2-2.79l5.07,4.52c-1.18,1.54-2.68,2.72-4.49,3.54
			c-1.81,0.82-3.88,1.22-6.19,1.22C285.28,389.59,283.01,389.07,280.99,388.01z"/>
		<path class="st0" d="M321.77,384.9h-9.05l-1.6,4.15h-8.16l10.41-23.81h7.89l10.41,23.81h-8.3L321.77,384.9z M319.56,379.12
			l-2.31-5.99l-2.31,5.99H319.56z"/>
		<path class="st0" d="M348.27,383.06h-2.18v5.99h-8.03v-23.81h11.46c2.2,0,4.12,0.36,5.75,1.09c1.63,0.73,2.89,1.77,3.78,3.13
			c0.88,1.36,1.33,2.95,1.33,4.76c0,1.7-0.39,3.19-1.16,4.46c-0.77,1.27-1.88,2.28-3.33,3.03l5,7.35h-8.57L348.27,383.06z
			 M351.46,372.16c-0.54-0.49-1.36-0.73-2.45-0.73h-2.92v5.58h2.92c1.09,0,1.9-0.24,2.45-0.73c0.54-0.49,0.82-1.17,0.82-2.06
			C352.28,373.34,352.01,372.65,351.46,372.16z"/>
		<path class="st0" d="M422.55,365.24l-7.62,23.81h-8.61l-3.84-12.72l-4.05,12.72h-8.61l-7.62-23.81h8.26l4.15,13.54l4.39-13.54
			h7.38l4.15,13.71l4.39-13.71H422.55z"/>
		<path class="st0" d="M444.79,384.9h-9.05l-1.6,4.15h-8.16l10.41-23.81h7.89l10.41,23.81h-8.3L444.79,384.9z M442.58,379.12
			l-2.31-5.99l-2.31,5.99H442.58z"/>
		<path class="st0" d="M464.2,388.93c-1.87-0.44-3.41-1.04-4.61-1.79l2.58-5.85c1.13,0.66,2.4,1.18,3.81,1.58
			c1.41,0.4,2.76,0.6,4.05,0.6c1.11,0,1.9-0.11,2.38-0.32c0.48-0.21,0.71-0.54,0.71-0.97c0-0.5-0.31-0.87-0.94-1.12
			c-0.62-0.25-1.65-0.52-3.08-0.82c-1.84-0.38-3.37-0.8-4.59-1.24c-1.22-0.44-2.29-1.17-3.2-2.18c-0.91-1.01-1.36-2.37-1.36-4.1
			c0-1.5,0.42-2.86,1.26-4.08c0.84-1.22,2.09-2.19,3.76-2.89c1.67-0.7,3.69-1.05,6.07-1.05c1.63,0,3.24,0.18,4.81,0.53
			c1.58,0.35,2.96,0.87,4.17,1.55l-2.41,5.82c-2.34-1.18-4.55-1.77-6.63-1.77c-2.06,0-3.1,0.5-3.1,1.5c0,0.48,0.31,0.83,0.92,1.07
			c0.61,0.24,1.62,0.49,3.03,0.77c1.81,0.34,3.34,0.73,4.59,1.17c1.25,0.44,2.33,1.16,3.25,2.16c0.92,1,1.38,2.36,1.38,4.08
			c0,1.5-0.42,2.85-1.26,4.06c-0.84,1.21-2.09,2.18-3.76,2.89c-1.67,0.71-3.69,1.07-6.07,1.07
			C467.99,389.59,466.07,389.37,464.2,388.93z"/>
		<path class="st0" d="M512,365.24v23.81h-8.03v-8.77h-7.41v8.77h-8.03v-23.81h8.03v8.43h7.41v-8.43H512z"/>
	</g>
	<g>
		<polygon class="st0" points="110.28,289.1 92.4,319.14 74.04,289.1 58.42,289.1 58.42,345.47 75.74,345.47 75.74,320.67 
			87.98,340.4 96.35,340.4 108.59,319.78 108.75,345.47 126.06,345.47 125.9,289.1 		"/>
		<path class="st0" d="M185.33,320.91c1.82-3.01,2.74-6.52,2.74-10.55c0-4.29-1.05-8.05-3.14-11.27c-2.09-3.22-5.07-5.69-8.94-7.41
			c-3.87-1.72-8.4-2.58-13.61-2.58h-27.14v56.37h19V331.3h5.15l9.58,14.17h20.29l-11.84-17.39
			C180.87,326.3,183.51,323.92,185.33,320.91z M166.97,315.23c-1.29,1.15-3.22,1.73-5.8,1.73h-6.93v-13.21h6.93
			c2.58,0,4.51,0.58,5.8,1.73c1.29,1.16,1.93,2.78,1.93,4.87C168.9,312.45,168.26,314.08,166.97,315.23z"/>
		<path class="st0" d="M202.89,325.5c-3.06,0-5.6,0.95-7.61,2.86c-2.01,1.91-3.02,4.39-3.02,7.45s1.01,5.57,3.02,7.53
			c2.01,1.96,4.55,2.94,7.61,2.94s5.6-0.98,7.61-2.94c2.01-1.96,3.02-4.47,3.02-7.53s-1.01-5.54-3.02-7.45
			C208.48,326.45,205.95,325.5,202.89,325.5z"/>
		<path class="st0" d="M274.47,303.19c4.88,0,9.1,2.07,12.64,6.2l12.16-10.71c-2.9-3.54-6.54-6.24-10.91-8.09
			c-4.38-1.85-9.33-2.78-14.86-2.78c-6.12,0-11.61,1.25-16.47,3.74c-4.86,2.5-8.64,5.99-11.35,10.47
			c-2.71,4.48-4.07,9.57-4.07,15.26c0,5.69,1.36,10.78,4.07,15.26c2.71,4.48,6.45,7.97,11.23,10.47c4.78,2.5,10.17,3.74,16.19,3.74
			c4.24,0,8.56-0.62,12.96-1.85c4.4-1.23,8.27-3.01,11.6-5.31v-23.84h-15.87h-0.64h-6.86v11.33h6.86v2.92
			c-2.2,0.91-4.51,1.37-6.93,1.37c-4.08,0-7.34-1.29-9.78-3.87c-2.44-2.58-3.66-5.99-3.66-10.23c0-4.35,1.23-7.78,3.7-10.31
			C266.95,304.46,270.28,303.19,274.47,303.19z"/>
		<polygon class="st0" points="324.8,289.1 305.79,289.1 305.79,345.47 350.25,345.47 350.25,330.73 324.8,330.73 		"/>
		<path class="st0" d="M400.57,291.6c-4.83-2.52-10.28-3.78-16.35-3.78c-6.07,0-11.52,1.26-16.35,3.78
			c-4.83,2.52-8.62,6.03-11.35,10.51c-2.74,4.48-4.11,9.54-4.11,15.18c0,5.64,1.37,10.7,4.11,15.18c2.74,4.48,6.52,7.99,11.35,10.51
			c4.83,2.52,10.28,3.78,16.35,3.78c6.07,0,11.52-1.26,16.35-3.78c4.83-2.52,8.62-6.03,11.35-10.51c2.74-4.48,4.11-9.54,4.11-15.18
			c0-5.64-1.37-10.7-4.11-15.18C409.19,297.62,405.4,294.12,400.57,291.6z M395.18,324.73c-1.13,2.12-2.64,3.76-4.55,4.91
			c-1.91,1.16-4.04,1.73-6.4,1.73c-2.36,0-4.5-0.58-6.4-1.73c-1.91-1.15-3.42-2.79-4.55-4.91c-1.13-2.12-1.69-4.6-1.69-7.45
			c0-2.85,0.56-5.33,1.69-7.45c1.13-2.12,2.64-3.76,4.55-4.91c1.9-1.15,4.04-1.73,6.4-1.73c2.36,0,4.5,0.58,6.4,1.73
			c1.9,1.16,3.42,2.79,4.55,4.91c1.13,2.12,1.69,4.6,1.69,7.45C396.87,320.13,396.31,322.61,395.18,324.73z"/>
		<polygon class="st0" points="494.63,289.1 484.24,321.55 474.42,289.1 456.94,289.1 446.55,321.15 436.73,289.1 417.16,289.1 
			435.2,345.47 455.57,345.47 465.15,315.35 474.25,345.47 494.63,345.47 512.66,289.1 		"/>
	</g>
	<path class="st4" d="M358.79,147.09c-6.73-10.83-5.29-13.87-5.29-19.16l1.86-31.28c0-0.41-0.04-0.82-0.09-1.21
		c0.06-1.15,0.09-2.3,0.09-3.46v0c0-36.68-29.73-66.41-66.41-66.41h-7.42c-36.68,0-66.41,29.73-66.41,66.41v0
		c0,1.16,0.03,2.31,0.09,3.46c-0.05,0.4-0.09,0.8-0.09,1.21l1.86,31.28c0,5.29,1.44,8.33-5.29,19.16
		c-6.65,10.7,8.33,11.3,12.65,11.3h57.2h2.89h1.65h2.89h57.2C350.46,158.38,365.44,157.79,358.79,147.09z M253.27,113.39
		c-3.51,0-6.35-2.84-6.35-6.35s2.84-6.35,6.35-6.35s6.35,2.84,6.35,6.35S256.77,113.39,253.27,113.39z M317.2,113.39
		c-3.51,0-6.35-2.84-6.35-6.35s2.84-6.35,6.35-6.35s6.35,2.84,6.35,6.35S320.7,113.39,317.2,113.39z"/>
	<path class="st0" d="M347.08,138.08c-5.63-9.06-4.43-11.6-4.43-16.03l1.55-26.17c0-0.35-0.03-0.68-0.07-1.02
		c0.05-0.96,0.07-1.92,0.07-2.89v0c0-30.68-24.87-55.56-55.56-55.56h-6.21c-30.68,0-55.56,24.87-55.56,55.56v0
		c0,0.97,0.03,1.94,0.07,2.89c-0.04,0.33-0.07,0.67-0.07,1.02l1.55,26.17c0,4.43,1.21,6.97-4.43,16.03
		c-5.57,8.95,6.97,9.45,10.58,9.45h47.85h2.41h1.38h2.41h47.85C340.11,147.53,352.64,147.03,347.08,138.08z M242.3,94.62
		c-0.34,0.77-1.1,1.22-1.89,1.22c-0.28,0-0.57-0.06-0.84-0.18c-1.04-0.46-1.51-1.68-1.04-2.73c1.61-3.61,4.53-6.38,8.22-7.79
		c3.69-1.41,7.71-1.3,11.32,0.31c1.04,0.46,1.51,1.68,1.04,2.73c-0.46,1.04-1.68,1.51-2.73,1.04c-2.6-1.16-5.5-1.24-8.16-0.22
		C245.56,90.02,243.46,92.02,242.3,94.62z M253.62,113.65c-3.61,0-6.54-2.93-6.54-6.54c0-3.61,2.93-6.54,6.54-6.54
		s6.54,2.93,6.54,6.54C260.15,110.72,257.23,113.65,253.62,113.65z M299.98,126.93c-3.98,3.98-9.21,5.97-14.43,5.97
		s-10.45-1.99-14.43-5.97c-0.81-0.81-0.81-2.11,0-2.92c0.81-0.81,2.11-0.81,2.92,0c6.35,6.35,16.68,6.35,23.03,0
		c0.81-0.81,2.11-0.81,2.92,0C300.78,124.81,300.78,126.12,299.98,126.93z M317.47,113.65c-3.61,0-6.54-2.93-6.54-6.54
		c0-3.61,2.93-6.54,6.54-6.54s6.54,2.93,6.54,6.54C324.01,110.72,321.08,113.65,317.47,113.65z M331.52,95.67
		c-0.27,0.12-0.56,0.18-0.84,0.18c-0.79,0-1.54-0.46-1.89-1.22c-1.16-2.6-3.27-4.6-5.92-5.62c-2.66-1.02-5.56-0.94-8.16,0.22
		c-1.04,0.46-2.26,0-2.73-1.04c-0.46-1.04,0-2.26,1.04-2.73c3.61-1.61,7.63-1.72,11.32-0.31c3.69,1.41,6.61,4.18,8.22,7.79
		C333.02,93.98,332.56,95.2,331.52,95.67z"/>
</g>
<g>
	<g>
		<path class="st0" d="M58.5,357.25c15.07,0,30.14,0,45.21,0c36.01,0,72.02,0,108.04,0c43.55,0,87.1,0,130.65,0
			c37.8,0,75.59,0,113.39,0c12.37,0,24.75,0,37.12,0c3.92,0,7.83,0,11.75,0c1.82,0,4.28,0.43,6.06,0c0.23-0.06,0.54,0,0.79,0
			c0.97,0,0.97-1.5,0-1.5c-15.07,0-30.14,0-45.21,0c-36.01,0-72.02,0-108.04,0c-43.55,0-87.1,0-130.65,0c-37.8,0-75.59,0-113.39,0
			c-12.37,0-24.75,0-37.12,0c-3.92,0-7.83,0-11.75,0c-1.82,0-4.28-0.43-6.06,0c-0.23,0.06-0.54,0-0.79,0
			C57.53,355.75,57.53,357.25,58.5,357.25L58.5,357.25z"/>
	</g>
</g>
</svg>
