<?xml version="1.0" encoding="utf-8"?>
<!-- Generator: Adobe Illustrator 20.1.0, SVG Export Plug-In . SVG Version: 6.00 Build 0)  -->
<svg version="1.1" id="Layer_1" xmlns="http://www.w3.org/2000/svg" xmlns:xlink="http://www.w3.org/1999/xlink" x="0px" y="0px"
	 viewBox="0 0 184.7 139" style="enable-background:new 0 0 184.7 139;" xml:space="preserve">
<style type="text/css">
	.st0{fill:none;stroke:#FFFFFF;stroke-width:2;stroke-linecap:round;stroke-miterlimit:10;}
	.st1{stroke:#231F20;stroke-width:10;stroke-miterlimit:10;}
	.st2{stroke:#231F20;stroke-width:24;stroke-linecap:round;stroke-linejoin:round;stroke-miterlimit:10;}
	.st3{fill:#FFFFFF;}
	.st4{opacity:0.9;fill:#FFFFFF;}
	.st5{opacity:0.5;fill:#FFFFFF;}
</style>
<g>
	<path class="st0" d="M100.5,61"/>
	<path class="st0" d="M100.5,61"/>
	<path class="st1" d="M100.5,83.5"/>
	<path class="st2" d="M100.5,80.4"/>
	<path class="st3" d="M129,67.2c-3.3-5.3-2.6-6.7-2.6-9.3l0.9-15.2c0-0.2,0-0.4,0-0.6c0-0.6,0-1.1,0-1.7c0-17.8-14.4-32.2-32.2-32.2
		h-3.6c-17.8,0-32.2,14.4-32.2,32.2c0,0.6,0,1.1,0,1.7c0,0.2,0,0.4,0,0.6l0.9,15.2c0,2.6,0.7,4-2.6,9.3c-3.2,5.2,4,5.5,6.1,5.5h27.7
		h1.4h0.8h1.4h27.7C125,72.7,132.2,72.4,129,67.2z M67.9,41.9c-0.1,0.3-0.4,0.5-0.7,0.5c-0.1,0-0.2,0-0.3-0.1
		c-0.4-0.2-0.6-0.7-0.4-1.1c1.8-4.1,6.7-6,10.8-4.1c0.4,0.2,0.6,0.7,0.4,1.1c-0.2,0.4-0.7,0.6-1.1,0.4c-1.6-0.7-3.4-0.8-5-0.1
		C69.9,39,68.6,40.3,67.9,41.9z M74.8,53c-2.1,0-3.8-1.7-3.8-3.8c0-2.1,1.7-3.8,3.8-3.8s3.8,1.7,3.8,3.8C78.6,51.3,76.9,53,74.8,53z
		 M101.4,60.5c-2.2,2.2-5.2,3.3-8.1,3.3c-2.9,0-5.9-1.1-8.1-3.3c-0.3-0.3-0.3-0.8,0-1.1c0.3-0.3,0.8-0.3,1.1,0
		c3.8,3.8,10.1,3.8,13.9,0c0.3-0.3,0.8-0.3,1.1,0C101.7,59.6,101.7,60.1,101.4,60.5z M111.8,53c-2.1,0-3.8-1.7-3.8-3.8
		c0-2.1,1.7-3.8,3.8-3.8c2.1,0,3.8,1.7,3.8,3.8C115.6,51.3,113.9,53,111.8,53z M119.8,42.3c-0.1,0-0.2,0.1-0.3,0.1
		c-0.3,0-0.6-0.2-0.7-0.5c-1.5-3.3-5.4-4.8-8.7-3.3c-0.4,0.2-0.9,0-1.1-0.4c-0.2-0.4,0-0.9,0.4-1.1c4.1-1.8,9,0,10.8,4.1
		C120.4,41.6,120.2,42.1,119.8,42.3z"/>
	<path class="st0" d="M93.3,48.5"/>
	<path class="st0" d="M93.3,48.5"/>
	<path class="st1" d="M93.3,71.1"/>
	<path class="st2" d="M93.3,67.9"/>
	<g>
		<g>
			<path class="st4" d="M51.3,101c-5.7,0-10.2-1.5-13.7-4.6c-4.9-4.3-7.3-11.3-7.3-20.9V41.9c0-3.2-1.3-6.3-3.4-8.4
				c-1.8-1.8-3.9-2.6-6.3-2.4c-3.5,0.2-6.6,2.4-8.2,5.5c-1.1,2.2-1.4,4.3-0.9,6.7c0.5,2.5-1.1,4.9-3.6,5.4c-2.5,0.5-4.9-1.1-5.4-3.6
				C1.5,40.9,2.1,36.5,4,32.6c3-6.1,9.1-10.2,15.8-10.6c5-0.3,9.6,1.4,13.3,5c4,3.8,6.2,9.3,6.2,15v33.7c0,6.8,1.4,11.5,4.2,14
				c2.4,2.1,6.2,2.8,11.7,2c9.1-1.2,9.1-19.1,9.1-19.3c0-2.5,2-4.6,4.5-4.7c0,0,0,0,0.1,0c2.5,0,4.5,2,4.6,4.5
				c0,0.3,0.1,6.3-1.7,12.6c-3.3,11.9-10.2,15.3-15.4,16C54.7,100.9,53,101,51.3,101z"/>
			<path class="st4" d="M135.3,101c-1.6,0-3.4-0.1-5.2-0.4c-5.2-0.7-12.1-4.1-15.4-16c-1.7-6.3-1.7-12.3-1.7-12.6
				c0-2.5,2.1-4.5,4.6-4.5c0,0,0.1,0,0.1,0c2.5,0,4.5,2.1,4.5,4.7c0,0.2,0,18.1,9.1,19.3c5.5,0.8,9.3,0.1,11.7-2
				c2.8-2.4,4.2-7.1,4.2-14V41.9c0-5.7,2.3-11.2,6.2-15c3.7-3.6,8.3-5.3,13.3-5c6.7,0.4,12.8,4.5,15.8,10.6c2,4,2.5,8.3,1.6,12.6
				c-0.5,2.5-2.9,4.1-5.4,3.6c-2.5-0.5-4.1-2.9-3.6-5.4c0.5-2.3,0.2-4.5-0.9-6.7c-1.6-3.2-4.7-5.3-8.2-5.5c-2.4-0.2-4.5,0.6-6.3,2.4
				c-2.2,2.1-3.4,5.2-3.4,8.4v33.7c0,9.6-2.5,16.6-7.3,20.9C145.6,99.5,141.1,101,135.3,101z"/>
		</g>
		<g>
			<path class="st4" d="M120.5,133.8c-0.5,0-1,0-1.4,0c-0.5,0-0.9,0-1.4-0.1c-5.6-0.3-10.9-2.5-14.6-5.9c-6.3-5.8-6.3-15.2-6.3-22.1
				v-0.4c0-3.6,0-5,0-5.8c0-1.3,0-1.4,0.1-4.9l-0.1-21.8c0-2.5,2-4.6,4.6-4.6c0,0,0,0,0,0c2.5,0,4.6,2,4.6,4.6l0.1,21.9
				c0,0.1,0,0.1,0,0.2c-0.1,3.4-0.1,3.5-0.1,4.5c0,0.8,0,2.3,0,6v0.4c0,5.2,0,12.3,3.3,15.3c2.1,2,5.6,3.3,8.9,3.5
				c0.4,0,0.8,0,1.2,0.1c8.3,0.4,16.5-3.5,21.9-10.2c3.1-3.9,11.4-12.8,22.2-12.4c6.9,0.3,13.1,4.4,18.4,12.2
				c1.4,2.1,0.9,4.9-1.2,6.4c-2.1,1.4-4.9,0.9-6.4-1.2c-3.6-5.2-7.3-8-11.2-8.1c-5.3-0.2-11.1,4.5-14.6,9
				C141.6,128.8,131.2,133.8,120.5,133.8z"/>
			<path class="st4" d="M66.2,133.8c0.5,0,1,0,1.4,0c0.5,0,0.9,0,1.4-0.1c5.6-0.3,10.9-2.5,14.6-5.9c6.3-5.8,6.3-15.2,6.3-22.1v-0.4
				c0-3.6,0-5,0-5.8c0-1.3,0-1.4-0.1-4.9l0.1-21.8c0-2.5-2-4.6-4.6-4.6c0,0,0,0,0,0c-2.5,0-4.6,2-4.6,4.6l-0.1,21.9
				c0,0.1,0,0.1,0,0.2c0.1,3.4,0.1,3.5,0.1,4.5c0,0.8,0,2.3,0,6v0.4c0,5.2,0,12.3-3.3,15.3c-2.1,2-5.6,3.3-8.9,3.5
				c-0.4,0-0.8,0-1.2,0.1c-8.3,0.4-16.5-3.5-21.9-10.2c-3.1-3.9-11.4-12.8-22.2-12.4c-6.9,0.3-13.1,4.4-18.4,12.2
				c-1.4,2.1-0.9,4.9,1.2,6.4c2.1,1.4,4.9,0.9,6.4-1.2c3.6-5.2,7.3-8,11.2-8.1c5.3-0.2,11.1,4.5,14.6,9
				C45,128.8,55.4,133.8,66.2,133.8z"/>
		</g>
		<path class="st5" d="M136,72.4c-3.9-6.3-3.1-8-3.1-11.1l1.1-18.1c0-0.2,0-0.5-0.1-0.7c0-0.7,0.1-1.3,0.1-2
			C134,19.2,116.7,2,95.5,2h-4.3C69.9,2,52.7,19.2,52.7,40.5c0,0.7,0,1.3,0.1,2c0,0.2-0.1,0.5-0.1,0.7l1.1,18.1
			c0,3.1,0.8,4.8-3.1,11.1C46.8,78.6,55.5,79,58,79h33.1h1.7h1h1.7h33.1C131.1,79,139.8,78.6,136,72.4z M67.9,41.9
			c-0.1,0.3-0.4,0.5-0.7,0.5c-0.1,0-0.2,0-0.3-0.1c-0.4-0.2-0.6-0.7-0.4-1.1c1.8-4.1,6.7-6,10.8-4.1c0.4,0.2,0.6,0.7,0.4,1.1
			c-0.2,0.4-0.7,0.6-1.1,0.4c-1.6-0.7-3.4-0.8-5-0.1C69.9,39,68.6,40.3,67.9,41.9z M74.8,53c-2.1,0-3.8-1.7-3.8-3.8
			c0-2.1,1.7-3.8,3.8-3.8c2.1,0,3.8,1.7,3.8,3.8C78.6,51.3,76.9,53,74.8,53z M101.4,60.5c-2.2,2.2-5.2,3.3-8.1,3.3
			c-2.9,0-5.9-1.1-8.1-3.3c-0.3-0.3-0.3-0.8,0-1.1c0.3-0.3,0.8-0.3,1.1,0c3.8,3.8,10.1,3.8,13.9,0c0.3-0.3,0.8-0.3,1.1,0
			C101.7,59.6,101.7,60.1,101.4,60.5z M111.8,53c-2.1,0-3.8-1.7-3.8-3.8c0-2.1,1.7-3.8,3.8-3.8c2.1,0,3.8,1.7,3.8,3.8
			C115.6,51.3,113.9,53,111.8,53z M119.8,42.3c-0.1,0-0.2,0.1-0.3,0.1c-0.3,0-0.6-0.2-0.7-0.5c-1.5-3.3-5.4-4.8-8.7-3.3
			c-0.4,0.2-0.9,0-1.1-0.4c-0.2-0.4,0-0.9,0.4-1.1c4.1-1.8,9,0,10.8,4.1C120.4,41.6,120.2,42.1,119.8,42.3z"/>
	</g>
</g>
</svg>
