<svg xmlns="http://www.w3.org/2000/svg" viewBox="0 0 971.31 596.4"><defs><style>.cls-1,.cls-2{fill:#fff;}.cls-2{opacity:0.5;}</style></defs><title>Asset 3</title><g id="Layer_2" data-name="Layer 2"><g id="Layer_1-2" data-name="Layer 1"><path class="cls-1" d="M41.39,582.61v12.65H0V545.48H40.46v12.66h-24V564h21v12.09h-21v6.55Zm48.28,12.65L81.07,582l-8.39,13.3H53.55l18-25.1L54.19,545.48H73L81.5,558l8.24-12.52h18.07l-17.28,24,18.34,25.74Zm67.92-47.5a17.94,17.94,0,0,1,0,33,29.53,29.53,0,0,1-12,2.27h-7.18v12.23H121.6V545.48h24A29.36,29.36,0,0,1,157.59,547.76Zm-8,20.8a6.26,6.26,0,0,0,0-8.6,7.46,7.46,0,0,0-5.12-1.53h-6.11v11.66h6.11A7.46,7.46,0,0,0,149.62,568.56Zm56.11,14.19h-4.55v12.51H184.4V545.48h24a29.33,29.33,0,0,1,12,2.28,18.39,18.39,0,0,1,8.25,25.81,17,17,0,0,1-7,6.33l10.45,15.36H214.19ZM212.41,560a7.44,7.44,0,0,0-5.12-1.53h-6.11v11.66h6.11a7.44,7.44,0,0,0,5.12-1.53,6.26,6.26,0,0,0,0-8.6Zm77,22.65v12.65H248V545.48h40.47v12.66h-24V564h21v12.09h-21v6.55ZM313.07,595a32,32,0,0,1-9.63-3.73l5.4-12.23a34.28,34.28,0,0,0,8,3.31,31.11,31.11,0,0,0,8.46,1.24,12.94,12.94,0,0,0,5-.68,2.16,2.16,0,0,0,1.49-2c0-1-.65-1.83-1.95-2.35a42.79,42.79,0,0,0-6.44-1.71,72.83,72.83,0,0,1-9.6-2.59,16.35,16.35,0,0,1-6.68-4.55q-2.85-3.16-2.85-8.57a14.78,14.78,0,0,1,2.63-8.53,17.4,17.4,0,0,1,7.86-6.05,32.63,32.63,0,0,1,12.69-2.2,45.83,45.83,0,0,1,10.07,1.1,31.57,31.57,0,0,1,8.71,3.23l-5.05,12.17a30.84,30.84,0,0,0-13.87-3.7q-6.47,0-6.47,3.13c0,1,.64,1.74,1.92,2.24a41.71,41.71,0,0,0,6.33,1.6,65.71,65.71,0,0,1,9.6,2.45,16.68,16.68,0,0,1,6.79,4.51q2.88,3.13,2.88,8.54a14.64,14.64,0,0,1-2.63,8.5,17.73,17.73,0,0,1-7.86,6,32.2,32.2,0,0,1-12.69,2.24A52,52,0,0,1,313.07,595Zm57.39,0a32,32,0,0,1-9.63-3.73l5.4-12.23a34.28,34.28,0,0,0,8,3.31,31.05,31.05,0,0,0,8.46,1.24,12.94,12.94,0,0,0,5-.68,2.16,2.16,0,0,0,1.49-2c0-1-.65-1.83-2-2.35a42.58,42.58,0,0,0-6.43-1.71,72.83,72.83,0,0,1-9.6-2.59,16.45,16.45,0,0,1-6.69-4.55q-2.83-3.16-2.84-8.57a14.78,14.78,0,0,1,2.63-8.53,17.35,17.35,0,0,1,7.86-6.05,32.59,32.59,0,0,1,12.69-2.2,45.67,45.67,0,0,1,10.06,1.1,31.52,31.52,0,0,1,8.72,3.23l-5.05,12.17a30.84,30.84,0,0,0-13.87-3.7c-4.32,0-6.47,1-6.47,3.13,0,1,.64,1.74,1.92,2.24a41.71,41.71,0,0,0,6.33,1.6,65.71,65.71,0,0,1,9.6,2.45,16.75,16.75,0,0,1,6.79,4.51q2.88,3.13,2.88,8.54a14.64,14.64,0,0,1-2.63,8.5,17.79,17.79,0,0,1-7.86,6,32.23,32.23,0,0,1-12.69,2.24A51.94,51.94,0,0,1,370.46,595Zm94.4-1.92a24.7,24.7,0,0,1-9.92-9.24,27.08,27.08,0,0,1,0-27,24.8,24.8,0,0,1,9.92-9.25,30.31,30.31,0,0,1,14.23-3.3A31.17,31.17,0,0,1,492,546.91a24,24,0,0,1,9.39,7.39l-10.6,9.46q-4.62-5.84-10.88-5.83a11.11,11.11,0,0,0-8.46,3.38q-3.21,3.38-3.2,9.06t3.2,9.07a11.11,11.11,0,0,0,8.46,3.38q6.26,0,10.88-5.83l10.6,9.46a24.14,24.14,0,0,1-9.39,7.39,31.17,31.17,0,0,1-12.94,2.56A30.19,30.19,0,0,1,464.86,593.09Zm85.27-6.5H531.21l-3.34,8.67H510.8l21.76-49.78h16.5l21.76,49.78H553.47Zm-4.62-12.09L540.67,562l-4.84,12.52Zm60,8.25H601v12.51H584.19V545.48h24a29.31,29.31,0,0,1,12,2.28,18.39,18.39,0,0,1,8.25,25.81,17,17,0,0,1-7,6.33l10.46,15.36H614ZM612.21,560a7.48,7.48,0,0,0-5.12-1.53H601v11.66h6.12a7.48,7.48,0,0,0,5.12-1.53,6.26,6.26,0,0,0,0-8.6Zm148.62-14.48-15.92,49.78h-18l-8-26.59-8.46,26.59h-18l-15.93-49.78h17.28l8.68,28.31,9.17-28.31h15.44l8.67,28.66,9.18-28.66Zm46.51,41.11H788.43l-3.35,8.67H768l21.76-49.78h16.5L828,595.26H810.69Zm-4.62-12.09L797.88,562l-4.83,12.52ZM847.91,595a32,32,0,0,1-9.63-3.73l5.4-12.23a34.28,34.28,0,0,0,8,3.31,31.11,31.11,0,0,0,8.46,1.24,12.94,12.94,0,0,0,5-.68,2.16,2.16,0,0,0,1.49-2c0-1-.65-1.83-2-2.35a42.58,42.58,0,0,0-6.43-1.71,72.83,72.83,0,0,1-9.6-2.59,16.45,16.45,0,0,1-6.69-4.55q-2.83-3.16-2.84-8.57a14.78,14.78,0,0,1,2.63-8.53,17.35,17.35,0,0,1,7.86-6.05,32.59,32.59,0,0,1,12.69-2.2,45.67,45.67,0,0,1,10.06,1.1,31.52,31.52,0,0,1,8.72,3.23l-5,12.17a30.84,30.84,0,0,0-13.87-3.7c-4.32,0-6.47,1-6.47,3.13,0,1,.64,1.74,1.92,2.24a41.71,41.71,0,0,0,6.33,1.6,65.71,65.71,0,0,1,9.6,2.45,16.75,16.75,0,0,1,6.79,4.51q2.88,3.13,2.88,8.54a14.64,14.64,0,0,1-2.63,8.5,17.79,17.79,0,0,1-7.86,6A32.23,32.23,0,0,1,860,596.4,51.94,51.94,0,0,1,847.91,595Zm100-49.53v49.78H931.08V576.92h-15.5v18.34H898.79V545.48h16.79v17.64h15.5V545.48Zm-836-154.06L73.66,455.58,34.44,391.42H1.07v120.4h37v-53L64.2,501H82.09l26.14-44,.34,54.87h37l-.34-120.4Zm160.3,67.94q5.85-9.63,5.85-22.53,0-13.75-6.71-24.08a42.88,42.88,0,0,0-19.09-15.83q-12.39-5.49-29.07-5.5h-58v120.4h40.59V481.55h11l20.47,30.27h43.34l-25.28-37.15A41.4,41.4,0,0,0,272.14,459.36Zm-39.21-12.13c-2.76,2.47-6.88,3.7-12.39,3.7H205.75V422.72h14.79c5.51,0,9.63,1.24,12.39,3.7s4.12,5.94,4.12,10.41S235.68,444.77,232.93,447.23Zm76.71,21.93q-9.81,0-16.26,6.11t-6.45,15.91q0,9.81,6.45,16.08a24.18,24.18,0,0,0,32.51,0q6.45-6.27,6.45-16.08t-6.45-15.91Q319.44,469.17,309.64,469.16Zm152.9-47.64q15.65,0,27,13.24l26-22.87a59.64,59.64,0,0,0-23.3-17.29q-14-5.93-31.74-5.93-19.61,0-35.17,8A59.32,59.32,0,0,0,401.05,419a65.46,65.46,0,0,0,0,65.18,59.76,59.76,0,0,0,24,22.36q15.31,8,34.57,8a102.61,102.61,0,0,0,27.7-4,82,82,0,0,0,24.76-11.36V448.35h-49.9v24.2h14.64v6.25A38.21,38.21,0,0,1,462,481.72q-13.06,0-20.89-8.26t-7.83-21.84q0-13.94,7.91-22T462.54,421.52ZM570,391.42H529.45v120.4h94.94V480.34H570Zm161.85,5.33q-15.48-8.08-34.92-8.08t-34.92,8.08a61.73,61.73,0,0,0,0,109.74q15.48,8.09,34.92,8.08t34.92-8.08a61.73,61.73,0,0,0,0-109.74Zm-11.53,70.78A26.46,26.46,0,0,1,710.64,478a27.1,27.1,0,0,1-27.34,0,26.39,26.39,0,0,1-9.72-10.49,36.86,36.86,0,0,1,0-31.82,26.45,26.45,0,0,1,9.72-10.49,27.1,27.1,0,0,1,27.34,0,26.52,26.52,0,0,1,9.72,10.49,36.86,36.86,0,0,1,0,31.82Zm212.42-76.11-22.19,69.32-21-69.32H852.28L830.1,459.88l-21-68.46H767.32l38.52,120.4h43.52l20.47-64.33,19.43,64.33h43.52l38.53-120.4Z"/><path class="cls-1" d="M562.33,342.09c-1.24,0-2.49,0-3.74-.07l-3.65-.19c-14.57-.84-28.54-6.49-38.31-15.49-16.42-15.13-16.41-39.8-16.4-57.82v-1.15c0-9.42-.07-13-.12-15.12-.06-3.3-.06-3.79.25-12.95l-.28-57.17A12,12,0,0,1,512,170.06h.06a12,12,0,0,1,12,11.95l.29,57.4c0,.16,0,.31,0,.47-.31,9-.3,9.13-.25,11.9,0,2.22.12,5.93.12,15.59v1.16c0,13.57,0,32.15,8.66,40.14,5.59,5.15,14.57,8.67,23.43,9.18l3.26.17c21.84.92,43.28-9.09,57.36-26.75,8.09-10.15,29.92-33.65,58.06-32.54,18.19.71,34.42,11.42,48.24,31.85A12,12,0,1,1,703.36,304c-9.3-13.74-19.15-20.91-29.27-21.31-14-.53-29,11.79-38.35,23.51C617.7,328.87,590.49,342.09,562.33,342.09Z"/><path class="cls-1" d="M420.05,342.09c1.24,0,2.49,0,3.74-.07l3.65-.19C442,341,456,335.34,465.75,326.34c16.43-15.13,16.41-39.8,16.41-57.82v-1.15c0-9.42.06-13,.11-15.12.06-3.3.06-3.79-.25-12.95l.28-57.17a12,12,0,0,0-11.95-12.07h-.06a12,12,0,0,0-12,11.95l-.29,57.4c0,.16,0,.31,0,.47.31,9,.3,9.13.25,11.9,0,2.22-.12,5.93-.12,15.59v1.16c0,13.57,0,32.15-8.65,40.14-5.6,5.15-14.57,8.67-23.43,9.18l-3.27.17c-21.84.92-43.28-9.09-57.36-26.75-8.09-10.15-29.92-33.65-58.06-32.54-18.19.71-34.42,11.42-48.24,31.85A12,12,0,0,0,279,304c9.3-13.74,19.15-20.91,29.28-21.31,14-.53,29,11.79,38.34,23.51C364.68,328.87,391.89,342.09,420.05,342.09Z"/><path class="cls-1" d="M596.87,250.44a54.07,54.07,0,0,1-7-.46l-.51-.07c-13.64-1.86-31.68-10.63-40.29-41.84a129.74,129.74,0,0,1-4.35-32.93,12,12,0,0,1,24,.38h0c0,.47,0,47.34,23.84,50.58l.46.07a30,30,0,0,0,33.78-30c-.49-60.83-.18-64.14,0-65.55C629.59,100.47,645,79.48,669,73c23.44-6.32,50.69,3.38,64.8,23.08,13.67,19.08,12.81,43-2.35,65.6A12.2,12.2,0,0,1,723,167a12,12,0,0,1-11-19.39c9.11-14,9.91-26.92,2.31-37.52-8.35-11.66-25.12-17.62-39-13.88S652.55,113,650.65,132.81c-.08,1.28-.29,9.63.14,63.15a54,54,0,0,1-53.92,54.48Z"/><path class="cls-1" d="M385.52,250.44A54,54,0,0,1,331.59,196c.43-53.5.22-61.86.14-63.15C329.83,113,321.1,100,307.14,96.2s-30.67,2.22-39,13.88c-7.6,10.6-6.8,23.57,2.31,37.52a12,12,0,0,1-11,19.39,12.18,12.18,0,0,1-8.48-5.31c-15.16-22.6-16-46.51-2.35-65.59C262.7,76.39,290,66.69,313.39,73c24,6.47,39.4,27.46,42.27,57.6.13,1.41.44,4.71-.05,65.55a30,30,0,0,0,33.8,30l.45-.06c23.8-3.24,23.84-50.11,23.83-50.58a12,12,0,0,1,24-.38,130,130,0,0,1-4.34,32.93c-8.62,31.21-26.66,40-40.28,41.84l-.51.07A54.22,54.22,0,0,1,385.52,250.44Z"/><path class="cls-1" d="M584.6,169.89c-8.55-13.75-6.72-17.6-6.72-24.33l2.36-39.72a13.13,13.13,0,0,0-.11-1.54c.07-1.46.11-2.92.11-4.39h0A84.34,84.34,0,0,0,495.9,15.57h-9.42a84.34,84.34,0,0,0-84.34,84.34h0c0,1.47,0,2.93.11,4.39a13.13,13.13,0,0,0-.11,1.54l2.36,39.72c0,6.73,1.83,10.58-6.72,24.33-8.45,13.59,10.58,14.35,16.06,14.35h154.7C574,184.24,593.05,183.48,584.6,169.89Zm-159.06-66a3.12,3.12,0,0,1-2.86,1.86,3.07,3.07,0,0,1-1.28-.27,3.13,3.13,0,0,1-1.58-4.14A22.45,22.45,0,0,1,449.47,90a3.13,3.13,0,1,1-2.55,5.72,16.19,16.19,0,0,0-21.38,8.19Zm17.19,28.88a9.92,9.92,0,1,1,9.92-9.92A9.93,9.93,0,0,1,442.73,132.8ZM513.1,153a31,31,0,0,1-43.82,0,3.13,3.13,0,0,1,4.43-4.43,24.75,24.75,0,0,0,35,0A3.13,3.13,0,0,1,513.1,153Zm26.56-20.16a9.92,9.92,0,1,1,9.92-9.92A9.93,9.93,0,0,1,539.66,132.8ZM561,105.51a3.07,3.07,0,0,1-1.28.27,3.12,3.12,0,0,1-2.86-1.86,16.19,16.19,0,0,0-21.38-8.19A3.13,3.13,0,1,1,532.91,90a22.45,22.45,0,0,1,29.65,11.36A3.13,3.13,0,0,1,561,105.51Z"/><path class="cls-2" d="M602.85,184.47c-10.22-16.44-8-21-8-29.08l2.82-47.48a14.13,14.13,0,0,0-.14-1.85c.09-1.74.14-3.49.14-5.25h0A100.81,100.81,0,0,0,496.83,0H485.55A100.81,100.81,0,0,0,384.74,100.81h0c0,1.76.05,3.51.14,5.25a14.13,14.13,0,0,0-.14,1.85l2.82,47.48c0,8,2.19,12.64-8,29.08-10.1,16.25,12.65,17.15,19.2,17.15H583.65C590.21,201.62,613,200.72,602.85,184.47ZM442.66,133.32a9.63,9.63,0,1,1,9.64-9.63A9.63,9.63,0,0,1,442.66,133.32Zm97.05,0a9.63,9.63,0,1,1,9.64-9.63A9.63,9.63,0,0,1,539.71,133.32Z"/></g></g></svg>