<?xml version="1.0" encoding="utf-8"?>
<!-- Generator: Adobe Illustrator 22.0.1, SVG Export Plug-In . SVG Version: 6.00 Build 0)  -->
<svg version="1.1" id="Layer_1" xmlns="http://www.w3.org/2000/svg" xmlns:xlink="http://www.w3.org/1999/xlink" x="0px" y="0px"
	 viewBox="0 0 1203.3 214.8" style="enable-background:new 0 0 1203.3 214.8;" xml:space="preserve">
<style type="text/css">
	.st0{fill:#FFFFFF;}
</style>
<title>small-logo</title>
<g id="Layer_2_1_">
	<g id="Layer_1-2">
		<path class="st0" d="M128.7,214c0.9,0,1.8,0,2.7-0.1c0.9,0,1.8-0.1,2.7-0.1c10.6-0.6,20.8-4.7,27.9-11.3c12-11,12-29,12-42.2v-0.8
			c0-6.9,0.1-9.5,0.1-11c0-2.4,0-2.8-0.2-9.4l0.2-41.7c0-4.8-3.9-8.8-8.7-8.8l0,0c-4.8,0-8.7,3.9-8.8,8.7l-0.2,41.8
			c0,0.1,0,0.2,0,0.4c0.2,6.5,0.2,6.7,0.2,8.7c0,1.6-0.1,4.3-0.1,11.4v0.9c0,9.9,0,23.4-6.3,29.3c-4.1,3.8-10.6,6.3-17.1,6.7
			l-2.4,0.1C114.5,197,99,189.8,88.9,177c-5.9-7.4-21.8-24.5-42.3-23.7c-13.3,0.5-25.1,8.3-35.2,23.2c-2.6,4.1-1.4,9.5,2.7,12.1
			c3.9,2.5,9.1,1.5,11.8-2.3c6.8-10,14-15.2,21.3-15.5c10.2-0.4,21.1,8.6,28,17.1C88.2,204.3,107.8,213.9,128.7,214z"/>
		<path class="st0" d="M110.7,160.8c-22.5,0-40.7-18.3-40.7-40.9c0-0.1,0-0.2,0-0.3c0.3-40.4,0.2-46.7,0.1-47.7
			C68.6,57,62,47.1,51.5,44.3S28.4,46,22,54.8c-5.7,8-5.1,17.8,1.7,28.3c3.1,3.9,2.5,9.6-1.4,12.7c-1.9,1.5-4.4,2.2-6.9,1.9
			c-2.6-0.4-4.9-1.8-6.4-4C-2.4,76.7-3,58.6,7.3,44.2C18,29.4,38.5,22,56.2,26.8C74.3,31.7,86,47.5,88.1,70.3
			c0.1,1.1,0.3,3.6,0,49.5c-0.1,12.5,9.9,22.7,22.4,22.8c1,0,2.1-0.1,3.1-0.2l0.3-0.1c18-2.4,18-37.8,18-38.2c0.1-5,4.2-9,9.2-9
			c4.8,0.1,8.7,3.9,8.9,8.7c0,8.4-1.1,16.7-3.3,24.9c-6.5,23.6-20.1,30.2-30.4,31.6l-0.4,0.1C114.3,160.6,112.5,160.8,110.7,160.8z"
			/>
		<path class="st0" d="M234.6,214.8c-0.9,0-1.8,0-2.7-0.1l-2.7-0.1c-10.6-0.6-20.8-4.7-27.9-11.3c-12-11-12-29-12-42.2v-0.8
			c0-6.9-0.1-9.5-0.1-11c0-2.4,0-2.8,0.2-9.4l-0.2-41.7c0-4.8,3.9-8.8,8.7-8.8c0,0,0,0,0,0l0,0c4.8,0,8.8,3.8,8.8,8.7l0.2,41.9v0.3
			c-0.2,6.5-0.2,6.7-0.2,8.7c0,1.6,0.1,4.3,0.1,11.4v0.9c0,9.9,0,23.4,6.3,29.3c4.1,3.8,10.6,6.3,17.1,6.7c0.8,0,1.6,0.1,2.4,0.1
			c16.2,0.5,31.8-6.7,41.8-19.5c5.9-7.4,21.8-24.5,42.3-23.7c13.3,0.5,25.1,8.3,35.2,23.2c2.7,4,1.7,9.5-2.3,12.2
			c-4,2.7-9.5,1.7-12.2-2.3c-6.8-10-14-15.2-21.3-15.5c-10.2-0.4-21.1,8.6-28,17.1C275.1,205,255.4,214.6,234.6,214.8z"/>
		<path class="st0" d="M252.6,161.5c22.5,0,40.8-18.3,40.7-40.8c0-0.1,0-0.2,0-0.3c-0.3-40.4-0.2-46.7-0.1-47.7
			c1.4-15,8-24.8,18.6-27.6s23.2,1.7,29.5,10.5c5.7,8,5.1,17.8-1.8,28.3c-3.1,4-2.3,9.7,1.7,12.7c4,3.1,9.7,2.3,12.7-1.7
			c0.1-0.2,0.2-0.3,0.3-0.5c11.4-17.1,12.1-35.1,1.8-49.5c-10.6-14.9-31.2-22.2-48.9-17.4c-18.2,4.9-29.8,20.7-31.9,43.5
			c-0.1,1.1-0.3,3.6,0,49.5c0.1,6.6-2.7,12.8-7.7,17.2c-4.9,4.3-11.4,6.3-17.9,5.5h-0.3c-18-2.4-18-37.8-18-38.2
			c0.1-5-3.9-9.1-8.9-9.2c-5-0.1-9.1,3.9-9.2,8.9c0,8.4,1.1,16.7,3.3,24.9c6.5,23.6,20.1,30.2,30.4,31.6h0.4
			C249,161.4,250.8,161.5,252.6,161.5z"/>
		<path class="st0" d="M249.6,112.2c-6.2-10-4.9-12.8-4.9-17.7l1.7-28.9c0-0.4,0-0.7-0.1-1.1c0.1-1.1,0.1-2.1,0.1-3.2l0,0
			C246.4,27.5,219,0,185.1,0c0,0,0,0,0,0h-6.9c-33.9,0-61.3,27.5-61.3,61.3l0,0c0,1.1,0,2.1,0.1,3.2c0,0.4-0.1,0.7-0.1,1.1l1.7,28.9
			c0,4.9,1.3,7.7-4.9,17.7s7.7,10.4,11.7,10.4h112.5C241.9,122.7,255.7,122.1,249.6,112.2z"/>
	</g>
</g>
<g>
	<path class="st0" d="M436.7,186.7v10.4h-33.9v-40.7H436v10.4h-19.6v4.8h17.2v9.9h-17.2v5.4H436.7z"/>
	<path class="st0" d="M476.2,197.1l-7-10.9l-6.9,10.9h-15.7l14.7-20.5l-14.2-20.2h15.4l6.9,10.2l6.8-10.2h14.8L476.9,176l15,21.1
		H476.2z"/>
	<path class="st0" d="M531.8,158.2c2.8,1.2,4.9,3,6.5,5.4c1.5,2.3,2.3,5,2.3,8.1c0,3.1-0.8,5.8-2.3,8.1c-1.5,2.3-3.7,4.1-6.5,5.4
		c-2.8,1.2-6.1,1.9-9.8,1.9h-5.9v10h-13.7v-40.7H522C525.8,156.3,529,157,531.8,158.2z M525.3,175.2c0.9-0.8,1.4-2,1.4-3.5
		c0-1.5-0.5-2.7-1.4-3.5c-0.9-0.8-2.3-1.3-4.2-1.3h-5v9.5h5C523,176.5,524.4,176.1,525.3,175.2z"/>
	<path class="st0" d="M571.2,186.8h-3.7v10.2h-13.7v-40.7h19.6c3.8,0,7,0.6,9.8,1.9c2.8,1.2,4.9,3,6.5,5.4c1.5,2.3,2.3,5,2.3,8.1
		c0,2.9-0.7,5.5-2,7.6c-1.3,2.2-3.2,3.9-5.7,5.2l8.6,12.6h-14.7L571.2,186.8z M576.7,168.2c-0.9-0.8-2.3-1.3-4.2-1.3h-5v9.5h5
		c1.9,0,3.3-0.4,4.2-1.3c0.9-0.8,1.4-2,1.4-3.5C578.1,170.2,577.6,169,576.7,168.2z"/>
	<path class="st0" d="M639.7,186.7v10.4h-33.9v-40.7H639v10.4h-19.6v4.8h17.2v9.9h-17.2v5.4H639.7z"/>
	<path class="st0" d="M659.1,196.9c-3.2-0.8-5.8-1.8-7.9-3.1l4.4-10c1.9,1.1,4.1,2,6.5,2.7c2.4,0.7,4.7,1,6.9,1
		c1.9,0,3.3-0.2,4.1-0.6c0.8-0.4,1.2-0.9,1.2-1.7c0-0.9-0.5-1.5-1.6-1.9c-1.1-0.4-2.8-0.9-5.3-1.4c-3.1-0.7-5.8-1.4-7.9-2.1
		c-2.1-0.8-3.9-2-5.5-3.7c-1.6-1.7-2.3-4.1-2.3-7c0-2.6,0.7-4.9,2.2-7c1.4-2.1,3.6-3.7,6.4-4.9c2.9-1.2,6.3-1.8,10.4-1.8
		c2.8,0,5.5,0.3,8.2,0.9c2.7,0.6,5.1,1.5,7.1,2.6l-4.1,10c-4-2-7.8-3-11.3-3c-3.5,0-5.3,0.9-5.3,2.6c0,0.8,0.5,1.4,1.6,1.8
		c1,0.4,2.8,0.8,5.2,1.3c3.1,0.6,5.7,1.3,7.9,2c2.1,0.8,4,2,5.6,3.7c1.6,1.7,2.4,4,2.4,7c0,2.6-0.7,4.9-2.2,7
		c-1.4,2.1-3.6,3.7-6.4,4.9c-2.9,1.2-6.3,1.8-10.4,1.8C665.6,198,662.3,197.6,659.1,196.9z"/>
	<path class="st0" d="M706.1,196.9c-3.2-0.8-5.8-1.8-7.9-3.1l4.4-10c1.9,1.1,4.1,2,6.5,2.7c2.4,0.7,4.7,1,6.9,1
		c1.9,0,3.3-0.2,4.1-0.6c0.8-0.4,1.2-0.9,1.2-1.7c0-0.9-0.5-1.5-1.6-1.9c-1.1-0.4-2.8-0.9-5.3-1.4c-3.1-0.7-5.8-1.4-7.9-2.1
		c-2.1-0.8-3.9-2-5.5-3.7c-1.6-1.7-2.3-4.1-2.3-7c0-2.6,0.7-4.9,2.2-7c1.4-2.1,3.6-3.7,6.4-4.9c2.9-1.2,6.3-1.8,10.4-1.8
		c2.8,0,5.5,0.3,8.2,0.9c2.7,0.6,5.1,1.5,7.1,2.6l-4.1,10c-4-2-7.8-3-11.3-3c-3.5,0-5.3,0.9-5.3,2.6c0,0.8,0.5,1.4,1.6,1.8
		c1,0.4,2.8,0.8,5.2,1.3c3.1,0.6,5.7,1.3,7.9,2c2.1,0.8,4,2,5.6,3.7c1.6,1.7,2.4,4,2.4,7c0,2.6-0.7,4.9-2.2,7
		c-1.4,2.1-3.6,3.7-6.4,4.9c-2.9,1.2-6.3,1.8-10.4,1.8C712.5,198,709.3,197.6,706.1,196.9z"/>
	<path class="st0" d="M783.3,195.3c-3.5-1.8-6.2-4.3-8.1-7.6c-2-3.2-2.9-6.9-2.9-11c0-4.1,1-7.8,2.9-11c2-3.2,4.7-5.8,8.1-7.6
		c3.5-1.8,7.3-2.7,11.6-2.7c4,0,7.5,0.7,10.6,2.1c3.1,1.4,5.7,3.4,7.7,6.1l-8.7,7.7c-2.5-3.2-5.5-4.8-8.9-4.8
		c-2.9,0-5.2,0.9-6.9,2.8c-1.7,1.8-2.6,4.3-2.6,7.4c0,3.1,0.9,5.6,2.6,7.4c1.7,1.8,4.1,2.8,6.9,2.8c3.4,0,6.4-1.6,8.9-4.8l8.7,7.7
		c-2,2.6-4.6,4.7-7.7,6.1c-3.1,1.4-6.6,2.1-10.6,2.1C790.7,198,786.8,197.1,783.3,195.3z"/>
	<path class="st0" d="M853.1,190h-15.5l-2.7,7.1h-14l17.8-40.7h13.5l17.8,40.7h-14.2L853.1,190z M849.3,180.1l-4-10.2l-4,10.2H849.3
		z"/>
	<path class="st0" d="M898.4,186.8h-3.7v10.2H881v-40.7h19.6c3.8,0,7,0.6,9.8,1.9c2.8,1.2,4.9,3,6.5,5.4c1.5,2.3,2.3,5,2.3,8.1
		c0,2.9-0.7,5.5-2,7.6c-1.3,2.2-3.2,3.9-5.7,5.2l8.6,12.6h-14.7L898.4,186.8z M903.9,168.2c-0.9-0.8-2.3-1.3-4.2-1.3h-5v9.5h5
		c1.9,0,3.3-0.4,4.2-1.3c0.9-0.8,1.4-2,1.4-3.5C905.3,170.2,904.9,169,903.9,168.2z"/>
	<path class="st0" d="M1025.6,156.3l-13,40.7h-14.7l-6.6-21.8l-6.9,21.8h-14.7l-13-40.7h14.1l7.1,23.2l7.5-23.2h12.6l7.1,23.5
		l7.5-23.5H1025.6z"/>
	<path class="st0" d="M1063.6,190h-15.5l-2.7,7.1h-14l17.8-40.7h13.5l17.8,40.7h-14.2L1063.6,190z M1059.8,180.1l-4-10.2l-4,10.2
		H1059.8z"/>
	<path class="st0" d="M1096.8,196.9c-3.2-0.8-5.8-1.8-7.9-3.1l4.4-10c1.9,1.1,4.1,2,6.5,2.7c2.4,0.7,4.7,1,6.9,1
		c1.9,0,3.3-0.2,4.1-0.6c0.8-0.4,1.2-0.9,1.2-1.7c0-0.9-0.5-1.5-1.6-1.9c-1.1-0.4-2.8-0.9-5.3-1.4c-3.1-0.7-5.8-1.4-7.9-2.1
		c-2.1-0.8-3.9-2-5.5-3.7c-1.6-1.7-2.3-4.1-2.3-7c0-2.6,0.7-4.9,2.2-7c1.4-2.1,3.6-3.7,6.4-4.9c2.9-1.2,6.3-1.8,10.4-1.8
		c2.8,0,5.5,0.3,8.2,0.9c2.7,0.6,5.1,1.5,7.1,2.6l-4.1,10c-4-2-7.8-3-11.3-3c-3.5,0-5.3,0.9-5.3,2.6c0,0.8,0.5,1.4,1.6,1.8
		c1,0.4,2.8,0.8,5.2,1.3c3.1,0.6,5.7,1.3,7.9,2c2.1,0.8,4,2,5.6,3.7c1.6,1.7,2.4,4,2.4,7c0,2.6-0.7,4.9-2.2,7
		c-1.4,2.1-3.6,3.7-6.4,4.9c-2.9,1.2-6.3,1.8-10.4,1.8C1103.3,198,1100,197.6,1096.8,196.9z"/>
	<path class="st0" d="M1178.6,156.3v40.7h-13.7v-15h-12.7v15h-13.7v-40.7h13.7v14.4h12.7v-14.4H1178.6z"/>
</g>
<g>
	<polygon class="st0" points="493.7,30.3 462.5,82.8 430.4,30.3 403.1,30.3 403.1,128.8 433.3,128.8 433.3,85.4 454.7,119.9 
		469.4,119.9 490.8,83.9 491,128.8 521.3,128.8 521,30.3 	"/>
	<path class="st0" d="M624.9,85.9c3.2-5.3,4.8-11.4,4.8-18.4c0-7.5-1.8-14.1-5.5-19.7c-3.7-5.6-8.9-9.9-15.6-13
		c-6.8-3-14.7-4.5-23.8-4.5h-47.4v98.5h33.2V104h9l16.8,24.8h35.5l-20.7-30.4C617.1,95.3,621.7,91.1,624.9,85.9z M592.8,75.9
		c-2.3,2-5.6,3-10.1,3h-12.1V55.9h12.1c4.5,0,7.9,1,10.1,3c2.3,2,3.4,4.9,3.4,8.5C596.2,71.1,595.1,73.9,592.8,75.9z"/>
	<path class="st0" d="M655.6,93.9c-5.3,0-9.8,1.7-13.3,5c-3.5,3.3-5.3,7.7-5.3,13s1.8,9.7,5.3,13.2c3.5,3.4,8,5.1,13.3,5.1
		s9.8-1.7,13.3-5.1c3.5-3.4,5.3-7.8,5.3-13.2s-1.8-9.7-5.3-13C665.4,95.5,661,93.9,655.6,93.9z"/>
	<path class="st0" d="M780.8,54.9c8.5,0,15.9,3.6,22.1,10.8L824.1,47c-5.1-6.2-11.4-10.9-19.1-14.1c-7.7-3.2-16.3-4.9-26-4.9
		c-10.7,0-20.3,2.2-28.8,6.5c-8.5,4.4-15.1,10.5-19.8,18.3c-4.7,7.8-7.1,16.7-7.1,26.7c0,9.9,2.4,18.8,7.1,26.7
		c4.7,7.8,11.3,13.9,19.6,18.3c8.4,4.4,17.8,6.5,28.3,6.5c7.4,0,15-1.1,22.7-3.2c7.7-2.2,14.5-5.3,20.3-9.3V76.8h-27.7h-1.1h-12
		v19.8h12v5.1c-3.8,1.6-7.9,2.4-12.1,2.4c-7.1,0-12.8-2.3-17.1-6.8c-4.3-4.5-6.4-10.5-6.4-17.9c0-7.6,2.2-13.6,6.5-18
		C767.6,57.1,773.4,54.9,780.8,54.9z"/>
	<polygon class="st0" points="868.7,30.3 835.5,30.3 835.5,128.8 913.2,128.8 913.2,103 868.7,103 	"/>
	<path class="st0" d="M1001.2,34.6c-8.4-4.4-18-6.6-28.6-6.6c-10.6,0-20.1,2.2-28.6,6.6C935.6,39,929,45.2,924.2,53
		c-4.8,7.8-7.2,16.7-7.2,26.5c0,9.9,2.4,18.7,7.2,26.5c4.8,7.8,11.4,14,19.8,18.4c8.4,4.4,18,6.6,28.6,6.6c10.6,0,20.1-2.2,28.6-6.6
		c8.4-4.4,15.1-10.5,19.8-18.4c4.8-7.8,7.2-16.7,7.2-26.5c0-9.9-2.4-18.7-7.2-26.5C1016.3,45.2,1009.7,39,1001.2,34.6z M991.8,92.5
		c-2,3.7-4.6,6.6-8,8.6c-3.3,2-7.1,3-11.2,3c-4.1,0-7.9-1-11.2-3c-3.3-2-6-4.9-8-8.6c-2-3.7-3-8-3-13c0-5,1-9.3,3-13
		c2-3.7,4.6-6.6,8-8.6c3.3-2,7.1-3,11.2-3c4.1,0,7.9,1,11.2,3c3.3,2,6,4.9,8,8.6c2,3.7,3,8,3,13C994.7,84.5,993.8,88.8,991.8,92.5z"
		/>
	<polygon class="st0" points="1165.6,30.3 1147.5,87 1130.3,30.3 1099.8,30.3 1081.6,86.3 1064.4,30.3 1030.2,30.3 1061.7,128.8 
		1097.4,128.8 1114.1,76.1 1130,128.8 1165.6,128.8 1197.2,30.3 	"/>
</g>
</svg>
