<svg xmlns="http://www.w3.org/2000/svg" viewBox="0 0 363.28 214.76"><defs><style>.cls-1{fill:#fff;}</style></defs><title>small-logo</title><g id="Layer_2" data-name="Layer 2"><g id="Layer_1-2" data-name="Layer 1"><path class="cls-1" d="M128.71,214q1.36,0,2.73-.06c.92,0,1.81-.08,2.66-.13,10.63-.62,20.81-4.74,27.93-11.3,12-11,12-29,12-42.15v-.84c0-6.87.05-9.47.08-11,0-2.4,0-2.76-.18-9.44l.2-41.68a8.76,8.76,0,0,0-8.71-8.8h0a8.76,8.76,0,0,0-8.75,8.72l-.21,41.84c0,.12,0,.23,0,.35.22,6.54.22,6.66.18,8.67,0,1.62-.09,4.33-.09,11.37v.85c0,9.89,0,23.43-6.31,29.26-4.08,3.75-10.62,6.32-17.08,6.7l-2.38.11A51.09,51.09,0,0,1,88.89,177c-5.9-7.4-21.81-24.53-42.33-23.72-13.26.52-25.1,8.33-35.17,23.22a8.76,8.76,0,0,0,14.5,9.82c6.78-10,14-15.25,21.35-15.54,10.22-.39,21.14,8.59,27.95,17.14A68.88,68.88,0,0,0,128.71,214Z"/><path class="cls-1" d="M110.68,160.76A40.77,40.77,0,0,1,70,119.62c.33-40.39.17-46.7.11-47.67C68.64,57,62,47.14,51.51,44.3S28.35,46,22.05,54.78c-5.74,8-5.13,17.79,1.74,28.33a9.07,9.07,0,0,1-8.32,14.64,9.22,9.22,0,0,1-6.4-4C-2.37,76.68-3,58.62,7.3,44.22,18,29.35,38.53,22,56.23,26.79,74.34,31.68,86,47.53,88.14,70.28c.1,1.07.34,3.56,0,49.49a22.62,22.62,0,0,0,25.51,22.66l.35-.05c18-2.45,18-37.83,18-38.19a9.07,9.07,0,0,1,18.13-.29,97.69,97.69,0,0,1-3.28,24.86c-6.5,23.57-20.12,30.19-30.4,31.59l-.39.06A41.64,41.64,0,0,1,110.68,160.76Z"/><path class="cls-1" d="M234.56,214.76c-.91,0-1.81,0-2.73-.06l-2.66-.13c-10.63-.62-20.8-4.74-27.93-11.3-12-11-12-29-12-42.16v-.84c0-6.86-.05-9.47-.08-11,0-2.4,0-2.76.18-9.44l-.21-41.68a8.76,8.76,0,0,1,8.72-8.8h0A8.76,8.76,0,0,1,206.69,98l.2,41.85v.34c-.22,6.54-.22,6.66-.18,8.68,0,1.62.08,4.32.08,11.36v.85c0,9.89,0,23.44,6.32,29.26,4.07,3.76,10.62,6.33,17.08,6.7.76,0,1.55.09,2.38.12a51.13,51.13,0,0,0,41.82-19.5c5.9-7.4,21.81-24.53,42.33-23.72,13.26.51,25.09,8.33,35.17,23.22A8.76,8.76,0,1,1,337.38,187c-6.78-10-14-15.25-21.34-15.53-10.22-.4-21.14,8.59-28,17.14A68.88,68.88,0,0,1,234.56,214.76Z"/><path class="cls-1" d="M252.59,161.48a40.78,40.78,0,0,0,40.72-41.13c-.33-40.4-.17-46.71-.11-47.68,1.44-15,8-24.8,18.57-27.64s23.16,1.67,29.46,10.48c5.74,8,5.13,17.79-1.75,28.33A9.08,9.08,0,1,0,354.2,94.46C365.65,77.4,366.3,59.35,356,44.94c-10.65-14.87-31.23-22.19-48.92-17.42C288.93,32.4,277.3,48.25,275.14,71c-.1,1.06-.34,3.56,0,49.49a22.68,22.68,0,0,1-7.67,17.19,22.45,22.45,0,0,1-17.85,5.46l-.34,0c-18-2.45-18-37.84-18-38.19a9.07,9.07,0,0,0-18.14-.29,98.21,98.21,0,0,0,3.28,24.86c6.51,23.57,20.13,30.19,30.41,31.59l.39,0A39.87,39.87,0,0,0,252.59,161.48Z"/><path class="cls-1" d="M249.57,112.24c-6.22-10-4.88-12.81-4.88-17.7l1.71-28.89a8.32,8.32,0,0,0-.08-1.12c.06-1.06.08-2.12.08-3.19h0A61.33,61.33,0,0,0,185.07,0h-6.86a61.34,61.34,0,0,0-61.34,61.34h0c0,1.07,0,2.13.08,3.19a10.36,10.36,0,0,0-.08,1.12l1.72,28.89c0,4.89,1.33,7.7-4.89,17.7s7.69,10.43,11.68,10.43H237.9C241.88,122.67,255.72,122.12,249.57,112.24Z"/></g></g></svg>