<svg xmlns="http://www.w3.org/2000/svg" xmlns:xlink="http://www.w3.org/1999/xlink" viewBox="0 0 1247.61 1355.02"><defs><style>.cls-1,.cls-10{fill:none;}.cls-2{isolation:isolate;}.cls-3{clip-path:url(#clip-path);}.cls-4{clip-path:url(#clip-path-2);}.cls-5,.cls-8{mix-blend-mode:hue;}.cls-5{fill:url(#blue_gradient);}.cls-6{mix-blend-mode:multiply;fill:url(#blue_gradient-2);}.cls-7{fill:url(#purple-pink_gradient);}.cls-9{mix-blend-mode:color;fill:url(#lime_gradient);}.cls-10{stroke:#201751;stroke-miterlimit:10;}</style><clipPath id="clip-path"><rect class="cls-1" x="207.93" y="398.76" width="932.3" height="618.72"/></clipPath><clipPath id="clip-path-2"><path class="cls-1" d="M33.08,725.71l.43,30.37,1.35,29,2.27,27.72,3.19,26.32,4.12,25,5,23.9,5.81,22.64L62,932.25l7.76,21.26,8.76,21,9.83,20.73,11.24,21.05,12.76,21.53,14.17,21.85,15.7,22.25,17.27,22.69,18.79,23.11,20.32,23.52h921.7l2.57-.11,2.53-.3,2.48-.5,2.46-.7,2.41-.9,2.32-1.08,2.22-1.27,2.13-1.45,2-1.6,1.86-1.76,1.73-1.91,1.56-2,1.39-2.14,1.22-2.27,1-2.33.83-2.4.65-2.46.46-2.54A4470.7,4470.7,0,0,0,1170.31,51.18l-65.89,7.58-64.07,8.68-62.26,9.78L917.57,88.14l-58.7,12-56.68,13L747.56,127,695,141.83,644.52,157.4l-48.28,16.35-46.12,17.1-43.9,17.66-41.67,18.24L425.1,245.56,388,264.66l-34.77,19.39L320.7,303.74l-30.36,19.83-28.23,20L236,363.62l-24.2,20.1-22.28,20.1-20.38,20.11-18.66,19.95-16.92,19.78-15.21,19.63-13.73,19.39L92.38,521.77,81.61,540.62,72,559.39l-8.49,18.75-7.32,18.68-6.28,18.53-5.24,18.29-4.2,18.15-3.24,18.26L34.89,688.5l-1.38,18.55Z"/></clipPath><linearGradient id="blue_gradient" x1="2.02" y1="-2.02" x2="1192.11" y2="1188.07" gradientUnits="userSpaceOnUse"><stop offset="0" stop-color="#00b9e3"/><stop offset="1" stop-color="#0097ce"/></linearGradient><linearGradient id="blue_gradient-2" x1="2901.66" y1="3281.26" x2="2901.66" y2="2582.62" gradientTransform="matrix(-0.33, -0.94, -0.94, 0.33, 4507.71, 2595.27)" xlink:href="#blue_gradient"/><linearGradient id="purple-pink_gradient" x1="1178.96" y1="2726.16" x2="1178.96" y2="2265.87" gradientTransform="matrix(-0.58, 0.91, -0.85, -0.84, 3191.5, 1421.92)" gradientUnits="userSpaceOnUse"><stop offset="0" stop-color="#ef2ac1"/><stop offset="1" stop-color="#773dbd"/></linearGradient><linearGradient id="lime_gradient" x1="3075.5" y1="491.46" x2="3075.5" y2="15.24" gradientTransform="matrix(0.86, -0.69, 0.75, 0.73, -1968.56, 2853.14)" gradientUnits="userSpaceOnUse"><stop offset="0" stop-color="#93d500"/><stop offset="1" stop-color="#38d430"/></linearGradient></defs><title>Asset 7</title><g class="cls-2"><g id="Layer_2" data-name="Layer 2"><g id="Layer_1-2" data-name="Layer 1"><g class="cls-3"><g class="cls-4"><rect class="cls-5" width="1194.13" height="1186.06"/><path class="cls-6" d="M645.82,1237.6c-85.34-71.25-150.77-168.3-176.52-271.67-36.6-147-19.75-304,34.25-444.6,37.91-98.88,105.94-210.21,194.15-277.94,44.62-34.21,116.11-65.31,173.47-55,88.12,15.87,75.93,96.16,61.53,166.37-44.18,216.14,51.79,382.08,189,546.61,86,103.13,156.09,146.17,112.61,284.62-47.46,151.15-227.28,186.31-361.2,162C791.44,1333.13,712.54,1293.25,645.82,1237.6Z"/><path class="cls-7" d="M373.45,33.72A306.05,306.05,0,0,0,209,180.08C158.51,278.56,141.14,402,151,525.25c6.89,86.67,31.22,192.53,76.61,272.24,23,40.29,64.05,87,103.4,98,60.44,16.89,67-47.4,70.27-104.85C411.5,613.87,504.2,520.6,623.62,441.88c74.85-49.35,128.4-58.78,125-177C745,135.84,633.82,50.65,541.93,25.11,485.86,9.57,427.1,13.73,373.45,33.72Z"/><g class="cls-8"><path class="cls-9" d="M785.83,1215c84.7-16.4,165.95-54.75,223-109.44,81.11-77.78,130.15-178.44,148-280.87,12.57-72,9.7-161.08-23.48-230-16.8-34.84-52.83-76.25-95.31-88.06-65.26-18.12-88,34.5-105.28,81.69C879.25,733.49,751,804.06,595.6,860.78c-97.41,35.55-161,39.63-185,137.43C384.3,1105,491.51,1183,590.76,1210.41,651.33,1227.12,719.64,1227.74,785.83,1215Z"/></g><rect class="cls-10" x="34.32" y="76.45" width="1159.81" height="1109.61"/><rect class="cls-10" x="34.32" y="76.45" width="1161.58" height="1107.98"/></g></g></g></g></g></svg>